<?xml version="1.0" encoding="utf-8" ?>
<svg xmlns="http://www.w3.org/2000/svg" xmlns:xlink="http://www.w3.org/1999/xlink" width="491" height="491">
	<path fill="#FEFEFE" transform="scale(0.479492 0.479492)" d="M0 0L1024 0L1024 1024L0 1024L0 0Z"/>
	<path fill="#030302" transform="scale(0.479492 0.479492)" d="M512.085 90.3751Q545.663 131.048 578.357 172.433C592.821 175.039 607.261 177.848 621.416 181.837Q624.57 182.711 627.708 183.644Q630.845 184.576 633.965 185.567Q637.084 186.558 640.185 187.607Q643.285 188.656 646.366 189.762Q649.446 190.869 652.506 192.032Q655.565 193.196 658.602 194.416Q661.639 195.637 664.653 196.913Q667.667 198.19 670.657 199.523Q673.646 200.856 676.61 202.244Q679.575 203.632 682.512 205.075Q685.45 206.518 688.361 208.016Q691.271 209.513 694.153 211.065Q697.035 212.617 699.888 214.222Q702.74 215.827 705.563 217.485Q708.385 219.143 711.176 220.853Q713.966 222.563 716.725 224.325Q719.484 226.087 722.209 227.9Q724.934 229.713 727.625 231.576Q730.316 233.439 732.972 235.353Q735.627 237.266 738.247 239.228Q740.867 241.191 743.449 243.201Q746.032 245.212 748.577 247.271Q751.121 249.329 753.627 251.435Q756.133 253.541 758.6 255.693Q761.066 257.845 763.492 260.042Q765.917 262.24 768.302 264.482Q770.686 266.724 773.028 269.011Q775.371 271.297 777.67 273.627Q779.969 275.956 782.225 278.328Q784.48 280.701 786.691 283.114Q788.902 285.528 791.067 287.982Q793.233 290.437 795.352 292.931C806.787 306.415 816.139 320.792 826.317 335.159C839.218 335.772 852.203 335.496 865.117 335.497C865.048 372.642 864.528 409.887 865.329 447.022L907.218 492.165C913.332 498.629 919.287 505.253 925.673 511.452C911.988 526.459 897.517 540.792 883.608 555.598C867.773 572.454 852.4 589.745 836.379 606.432Q836.279 629.269 836.446 652.106C847.166 654.496 857.764 658.156 868.223 661.521Q899.316 671.479 929.795 683.181C924.421 688.307 918.217 692.873 912.431 697.557L883.851 720.836C878.472 725.208 872.852 729.342 867.951 734.261C874.691 745.183 880.269 757.337 886.157 768.781C893.427 782.912 901.178 797.001 907.798 811.445Q891.677 805.737 875.346 800.664Q859.014 795.591 842.497 791.161Q825.98 786.73 809.302 782.949Q792.624 779.167 775.811 776.041C763.211 773.732 750.453 772.149 737.79 770.208C737.608 767.975 737.615 765.713 737.556 763.474C724.718 776.979 712.647 790.963 699.212 803.938C655.063 846.575 604.187 882.022 551.041 912.471C541.46 917.961 520.684 931.115 511.349 933.889L503.398 929.535C440.206 896.206 379.208 856.305 327.353 806.914C310.529 790.89 295.16 773.573 279.48 756.466Q280.973 763.298 282.218 770.18C267.186 773.731 251.458 775.257 236.267 778.359C195.258 786.733 153.964 797.218 114.606 811.538C118.945 800.29 125.596 789.455 131.53 778.991C139.961 764.126 148.382 748.899 158.4 735.033C136.977 718.935 115.623 702.123 95.2501 684.704C125.578 673.234 156.038 661.724 187.212 652.756L186.998 603.378C181.359 596.66 174.658 590.674 168.537 584.38C152.529 567.919 136.213 551.826 119.894 535.674C112.082 527.942 103.301 520.258 96.4943 511.624C116.82 489.912 138.642 469.389 158.375 447.146C157.299 409.684 158.068 371.998 158.048 334.515L199.168 334.479C202.594 327.653 207.229 321.129 211.632 314.896C268.877 233.857 350.476 188.658 447.286 171.987C469.397 145.218 489.808 117.036 512.085 90.3751Z"/>
	<path fill="#BD670D" transform="scale(0.479492 0.479492)" d="M280.999 363.407L281.218 362.963C281.384 362.621 281.472 362.242 281.667 361.915C281.76 361.759 282.39 361.042 282.524 360.886L283.759 362.052L283.637 361.359C284.478 363.11 284.67 364.273 284.703 366.207Q284.729 367.057 284.715 367.908C284.683 369.165 284.557 370.233 283.622 371.129L282.82 371.027C280.831 368.407 280.856 366.618 280.999 363.407Z"/>
	<path fill="#27768A" transform="scale(0.479492 0.479492)" d="M402.997 409.809C404.365 409.649 405.748 409.576 407.122 409.474L406.931 409.922C404.362 411.145 400.409 414.541 397.785 414.389L390.936 409.993Q396.968 410.02 402.997 409.809Z"/>
	<path fill="#800A20" transform="scale(0.479492 0.479492)" d="M630.105 408.357L633.185 411.168C631.518 412.921 629.882 414.727 628.142 416.407C624.378 413.763 620.348 411.382 616.677 408.637C621.132 408.394 625.639 408.489 630.105 408.357Z"/>
	<path fill="#D82E3D" transform="scale(0.479492 0.479492)" d="M618.043 396.077C622.266 400.006 626.21 404.106 630.105 408.357C625.639 408.489 621.132 408.394 616.677 408.637L614.379 407.461C617.011 404.187 617.291 400.095 618.043 396.077Z"/>
	<path fill="#19555F" transform="scale(0.479492 0.479492)" d="M706.693 485.329C713.324 477.243 721.268 469.625 728.582 462.14L728.635 467.613C724.692 471.785 712.258 486.424 708.317 488.507C708.377 486.773 710.057 485.641 711.091 484.223L710.866 482.98L710.056 482.707C709.321 483.904 708.732 484.761 707.6 485.644L706.693 485.329Z"/>
	<path fill="#19555F" transform="scale(0.479492 0.479492)" d="M728.632 386.117C730.044 394.264 729.252 410.813 728.654 419.43C723.404 425.56 706.464 444.935 700.793 447.946C707.029 437.602 720.228 423.888 728.516 414.698C728.492 405.206 728.146 395.593 728.632 386.117Z"/>
	<path fill="#27768A" transform="scale(0.479492 0.479492)" d="M706.693 485.329L707.6 485.644C708.732 484.761 709.321 483.904 710.056 482.707L710.866 482.98L711.091 484.223C710.057 485.641 708.377 486.773 708.317 488.507Q696.277 500.596 684.502 512.944C680.14 517.533 675.927 522.818 671.126 526.924C671.331 525.77 671.512 524.809 672.212 523.826C675.66 518.988 680.173 514.427 684.079 509.926C690.23 502.837 699.548 491.162 706.693 485.329Z"/>
	<path fill="#19555F" transform="scale(0.479492 0.479492)" d="M728.184 512.132C728.17 513.353 728.335 515.209 727.86 516.334C726.264 520.114 701.919 544.685 697.261 549.243C696.375 550.109 694.959 550.036 693.746 550.076C704.521 536.621 715.823 524.147 728.184 512.132Z"/>
	<path fill="#F7B142" transform="scale(0.479492 0.479492)" d="M838.154 502.855C840.881 503.819 844.711 509.318 846.676 511.623C844.054 514.889 840.889 517.787 837.929 520.748C834.695 517.618 831.368 514.575 828.086 511.494C831.208 508.393 834.77 505.666 838.154 502.855Z"/>
	<path fill="#D82E3D" transform="scale(0.479492 0.479492)" d="M185.603 702.572L186.197 702.7C187.36 705.432 186.704 710.832 186.709 713.913C175.522 717.35 164.323 721.061 152.986 723.961L149.169 720.524L142.587 715.165C156.567 710.271 171.297 706.438 185.603 702.572Z"/>
	<path fill="#D82E3D" transform="scale(0.479492 0.479492)" d="M836.061 701.142C851.438 705.231 867.322 711.929 882.954 714.371L878.229 718.15Q874.83 720.955 871.397 723.717C860.156 719.293 847.811 716.052 836.169 712.755L836.061 701.142Z"/>
	<path fill="#F7B142" transform="scale(0.479492 0.479492)" d="M471.346 438.249Q478.472 438.136 485.595 438.397L485.529 456.902L472.783 456.856L457.65 456.702L457.591 438.342L471.346 438.249Z"/>
	<path fill="#F7B142" transform="scale(0.479492 0.479492)" d="M538.45 438.439Q552.891 438.219 567.331 438.455Q567.373 447.575 567.162 456.693C557.613 456.996 548.008 456.732 538.453 456.677L538.45 438.439Z"/>
	<path fill="#F7B142" transform="scale(0.479492 0.479492)" d="M496.614 439.015L527.917 439.026Q527.923 447.819 527.808 456.612L496.807 456.597L496.614 439.015Z"/>
	<path fill="#50BCD2" transform="scale(0.479492 0.479492)" d="M379.858 521.539C384.994 526.629 397.729 540.834 403.479 543.665C404.377 544.107 405.199 544.045 406.173 544.07C406.396 544.075 406.618 544.096 406.84 544.107C406.974 544.114 407.107 544.118 407.241 544.123C394.003 545.206 380.667 546.253 367.523 548.202L364.403 544.85C363.984 543.599 363.793 542.847 363.886 541.499C367.229 537.896 370.236 533.662 372.816 529.489C374.059 527.478 375.444 524.302 377.038 522.651C377.842 521.819 378.763 521.644 379.858 521.539Z"/>
	<path fill="#D82E3D" transform="scale(0.479492 0.479492)" d="M836.527 742.41C848.021 746.84 860.273 749.94 871.934 754.083C874.528 758.648 876.803 763.397 879.149 768.093Q872.045 765.908 864.997 763.546Q841.484 756.418 817.715 750.199C823.727 748.983 829.973 748.436 835.874 746.765C836.751 745.585 836.504 743.825 836.527 742.41Z"/>
	<path fill="#FEFEFE" transform="scale(0.479492 0.479492)" d="M728.13 478.23L728.12 484.327C722.943 487.89 718.328 493.86 714.001 498.435C708.002 504.779 671.317 545.363 667.613 546.281Q662.817 545.655 658.039 544.907C669.755 534.328 681.004 522.927 692.458 512.036C704.363 500.715 716.504 489.866 728.13 478.23Z"/>
	<path fill="#D82E3D" transform="scale(0.479492 0.479492)" d="M185.957 688.585L186.287 688.819C187.359 691.451 186.718 696.702 186.725 699.66C177.47 702.309 168.16 704.871 159.004 707.844C153.067 709.772 147.264 712.082 141.288 713.889L136.224 710.217L129.666 705.238C136.393 702.373 143.736 701.108 150.757 699.127Q168.409 694.029 185.957 688.585Z"/>
	<path fill="#19555F" transform="scale(0.479492 0.479492)" d="M728.622 359.645L728.48 366.41C718.937 377.048 708.864 387.103 698.948 397.383C680.421 416.588 661.712 435.806 643.875 455.647L644.573 444.162L645.157 444.505C649.433 443.023 720.118 368.568 728.622 359.645Z"/>
	<path fill="#D82E3D" transform="scale(0.479492 0.479492)" d="M836.065 686.373C844.308 689.27 852.818 691.614 861.166 694.204C872.275 697.651 883.323 701.307 894.465 704.647L889.985 708.343L884.294 713.247C868.141 708.828 852.184 703.245 836.072 698.578L836.065 686.373Z"/>
	<path fill="#FEFEFE" transform="scale(0.479492 0.479492)" d="M294.987 479.77L329.738 514.699C341.029 526.163 352.133 537.862 364.028 548.709L355.391 549.787C354.381 549.684 353.743 549.426 352.966 548.742C348.123 544.478 343.833 539.024 339.524 534.219Q326.917 520.244 313.964 506.588C309.429 501.752 304.945 496.284 299.93 491.971C299.804 498.692 300.95 521.423 299.365 525.994L294.886 521.104L294.987 479.77Z"/>
	<path fill="#D82E3D" transform="scale(0.479492 0.479492)" d="M836.178 715.272C847.307 718.79 858.583 721.831 869.693 725.425C866.5 727.491 863.254 729.498 860.304 731.906C862.627 736.846 865.482 741.551 868.187 746.289L871.197 752.189C859.815 747.82 848.302 743.813 836.379 741.2Q836.362 728.235 836.178 715.272Z"/>
	<path fill="#D82E3D" transform="scale(0.479492 0.479492)" d="M185.612 674.564L186.274 674.739C187.361 677.764 186.694 682.895 186.698 686.179L156.307 694.997C146.959 697.734 137.478 700.151 128.729 704.521L122.831 699.954L117.186 695.494C125.955 692.298 135.128 689.998 144.054 687.262C157.91 683.015 171.647 678.455 185.612 674.564Z"/>
	<path fill="#800A20" transform="scale(0.479492 0.479492)" d="M610.549 376.85C628.917 377.351 647.36 376.069 665.689 376.728L662.23 380.192C654.433 388.662 646.033 396.719 638.807 405.684C633.671 401.195 629.123 396.007 624.376 391.11C620.939 387.565 617.222 384.144 614.014 380.395L610.549 376.85Z"/>
	<path fill="#D82E3D" transform="scale(0.479492 0.479492)" d="M836.189 672.647C860.1 678.554 883.868 686.63 907.267 694.258L902.701 698.205L896.671 703.235C876.452 697.018 856.326 690.317 836.171 683.873L836.189 672.647Z"/>
	<path fill="#D82E3D" transform="scale(0.479492 0.479492)" d="M213.032 752.655C219.541 751.619 228.344 755.108 234.496 757.053C224.256 760.468 213.067 762.271 202.528 764.687Q177.709 770.328 153.37 777.77Q144.686 780.637 135.918 783.233C138.132 779.205 140.286 775.138 142.839 771.312C165.503 763.569 189.499 757.075 213.032 752.655Z"/>
	<path fill="#FEFEFE" transform="scale(0.479492 0.479492)" d="M727.859 323.267C728.264 326.087 728.173 328.881 728.127 331.721L660.184 402.138C652.467 410.148 644.469 417.942 636.954 426.138L632.728 421.583C642.067 410.121 653.606 399.814 663.899 389.162Q695.704 356.045 727.859 323.267Z"/>
	<path fill="#FEFEFE" transform="scale(0.479492 0.479492)" d="M294.709 320.794L351.778 381.632C364.938 395.432 378.787 408.833 391.548 422.977L388.307 426.286C379.696 420.993 362.4 400.501 354.876 392.48C336.345 372.724 317.37 353.158 299.5 332.807C299.705 344.129 300.262 355.915 299.354 367.181L294.928 362.78C294.908 348.794 295.078 334.774 294.709 320.794Z"/>
	<path fill="#D82E3D" transform="scale(0.479492 0.479492)" d="M812.991 751.718C835.421 757.481 858.544 763.133 880.342 770.939C883.046 774.914 885.217 779.314 887.517 783.535Q877.174 780.176 866.763 777.033C840.245 768.835 812.217 761.457 784.752 757.437C794.067 755.2 803.557 753.373 812.991 751.718Z"/>
	<path fill="#D82E3D" transform="scale(0.479492 0.479492)" d="M186.323 658.627C187.486 660.396 186.684 668.587 186.666 671.2C175.075 674.461 123.807 689.731 116.718 695.051L110.838 690.432L105.641 686.428C120.147 680.466 135.176 675.543 150.022 670.495C162.046 666.406 174.085 662.022 186.323 658.627Z"/>
	<path fill="#D82E3D" transform="scale(0.479492 0.479492)" d="M836.295 657.201C864.436 665.127 891.516 675.743 919.298 684.628L914.244 688.6C912.47 690.064 910.594 691.42 908.761 692.81Q872.744 680.269 836.214 669.314L836.295 657.201Z"/>
	<path fill="#FEFEFE" transform="scale(0.479492 0.479492)" d="M511.482 187.751C514.522 191.739 517.195 201.279 519.288 206.431L538.402 206.44C533.633 210.822 528.302 214.525 523.605 219.024C525.365 225.008 527.237 230.972 528.476 237.091C522.921 233.698 517.527 230.283 512.494 226.137C506.963 229.825 501.482 233.704 495.676 236.944C497.239 230.908 499.164 224.961 500.99 219L485.348 206.657C491.735 206.834 498.182 206.558 504.572 206.447Q508.125 197.135 511.482 187.751Z"/>
	<path fill="#FEFEFE" transform="scale(0.479492 0.479492)" d="M614.458 541.383C632.02 522.423 650.758 504.306 669.268 486.265Q698.221 457.761 728.074 430.201C728.143 431.599 728.524 433.56 727.609 434.72C726.133 436.593 724.12 438.25 722.465 439.997L709.277 454.141L658.467 508.363C648.001 519.374 636.421 530.09 627.222 542.203Q620.845 541.715 614.458 541.383Z"/>
	<path fill="#FEFEFE" transform="scale(0.479492 0.479492)" d="M728.462 377.172L728.558 385.508C722.835 388.637 693.739 420.813 687.797 427.067C670.173 445.616 651.749 463.296 634.022 481.727C629.004 486.944 581.964 537.904 580.111 538.471L580.055 528.454Q607.373 503.727 632.771 477.032C638.827 470.64 644.407 463.813 650.489 457.439L728.462 377.172Z"/>
	<path fill="#FEFEFE" transform="scale(0.479492 0.479492)" d="M295.01 426.721C332.513 467.146 374.157 503.533 412.024 543.64C410.433 543.817 408.839 544.024 407.241 544.123C407.107 544.118 406.974 544.114 406.84 544.107C406.618 544.096 406.396 544.075 406.173 544.07C405.199 544.045 404.377 544.107 403.479 543.665C397.729 540.834 384.994 526.629 379.858 521.539Q352.701 494.604 326.56 466.682C317.591 457.266 308.369 448.055 299.674 438.384C299.87 449.697 300.515 463.907 299.438 474.923C297.897 473.124 296.279 471.359 294.916 469.419L295.01 426.721Z"/>
	<path fill="#FEFEFE" transform="scale(0.479492 0.479492)" d="M511.536 770.777C514.887 778.04 516.736 788.059 518.939 795.895Q532.02 795.459 545.107 795.588L522.989 809.148Q527.693 821.616 531.658 834.338Q521.965 825.247 512.034 816.417C504.889 821.763 498.328 828.398 491.61 834.307Q495.927 821.791 500.698 809.441C493.265 804.599 485.529 800.19 477.995 795.499L504.725 795.956Q508.516 783.471 511.536 770.777Z"/>
	<path fill="#F7B142" transform="scale(0.479492 0.479492)" d="M806.176 511.1L824.598 529.339C822.016 546.094 816.24 562.709 811.954 579.104C805.324 576.316 797.686 574.839 790.735 573.029C793.515 563.649 796.722 554.395 799.219 544.93C802.166 533.756 804.18 522.471 806.176 511.1Z"/>
	<path fill="#D82E3D" transform="scale(0.479492 0.479492)" d="M186.451 716.064C187.735 718.552 186.914 725.258 186.914 728.195C181.824 729.539 177.123 730.779 172.532 733.43C172.518 733.453 172.509 733.482 172.49 733.501C172.313 733.677 172.127 733.842 171.946 734.013C176.647 734.113 182.203 732.156 186.791 731.029C186.728 736.29 186.804 741.559 186.823 746.821C193.57 747.838 200.248 749.121 206.942 750.436C201.332 752.236 195.384 753.35 189.658 754.76Q177.62 757.698 165.751 761.258C158.694 763.449 151.761 766.159 144.596 767.972C150.065 755.821 158.555 744.758 165.314 733.279C161.624 731.055 157.985 728.607 154.983 725.487Q170.859 721.251 186.451 716.064Z"/>
	<path fill="#D82E3D" transform="scale(0.479492 0.479492)" d="M549.801 710.653C560.497 710.461 571.23 710.634 581.929 710.632L581.836 719.215Q570.299 719.228 558.763 719.082C558.619 722.73 558.759 726.409 558.808 730.06C566.405 730.061 574.026 729.716 581.623 729.519L581.574 738.603C577.938 738.603 560.586 738.097 558.675 739.648L558.82 748.604Q570.37 748.591 581.898 747.882L581.812 757.791Q563.155 757.512 544.497 757.643C544.512 751.373 543.632 715.745 545.105 713.241C546.006 711.709 548.229 711.124 549.801 710.653Z"/>
	<path fill="#D82E3D" transform="scale(0.479492 0.479492)" d="M422.724 711.25Q430.942 711.065 439.162 711.14C438.891 713.844 438.911 716.448 438.987 719.159L410.731 719.449C410.626 723.102 410.739 726.782 410.764 730.437L431.872 730.397L431.794 738.089L410.815 738.152C410.706 741.948 410.83 745.766 410.876 749.564L424.25 749.515L439.614 749.491L439.536 757.932C425.115 757.779 410.683 757.916 396.261 757.947C395.862 742.511 396.142 726.979 396.076 711.53C404.956 711.556 413.845 711.356 422.724 711.25Z"/>
	<path fill="#50BCD2" transform="scale(0.479492 0.479492)" d="M667.613 546.281C671.317 545.363 708.002 504.779 714.001 498.435C718.328 493.86 722.943 487.89 728.12 484.327C728.089 493.506 727.604 502.991 728.184 512.132C715.823 524.147 704.521 536.621 693.746 550.076C685.392 548.147 676.163 547.125 667.613 546.281Z"/>
	<path fill="#D82E3D" transform="scale(0.479492 0.479492)" d="M595.063 711.121C603.069 710.563 622.353 710.397 629.613 712.795L629.605 723.931C625.452 723.811 620.434 724.981 616.63 723.385C615.464 721.847 615.807 720.917 615.832 719.024L604.466 718.988L604.457 730.846C610.796 730.725 617.131 730.557 623.47 730.753C625.631 732.179 627.911 733.423 630.158 734.707C630.101 740.756 631.063 747.244 630.114 753.216C629.763 755.42 628.891 756.148 627.135 757.425Q626.321 757.496 625.504 757.527C620.978 757.724 592.773 758.62 590.94 756.331C589.293 754.274 590.027 748.588 590.061 746.027Q593.434 745.907 596.808 745.821C598.227 745.786 603.496 745.457 604.25 746.798C604.662 747.53 604.209 748.241 605.013 748.822C607.321 750.489 613.168 749.672 616.03 749.584L616.024 739.691C609.21 739.238 602.353 739.824 595.537 739.201C593.771 738.034 592.084 736.739 590.38 735.484C590.042 728.859 589.215 720.375 590.496 713.92C591.607 712.391 593.387 711.841 595.063 711.121Z"/>
	<path fill="#FEFEFE" transform="scale(0.479492 0.479492)" d="M294.995 373.746C308.349 388.16 321.516 402.704 335.081 416.927L405.747 489.731C418.886 503.381 433.252 516.314 445.786 530.472L443.846 535.656C436.896 530.963 431.386 524.188 425.151 518.613C422.555 514.671 417.715 510.806 414.35 507.395C405.277 498.196 396.1 489.078 387.163 479.748C357.78 449.074 329.477 417.369 299.956 386.806C299.91 397.813 300.671 409.533 299.449 420.44L294.964 415.108L294.995 373.746Z"/>
	<path fill="#50BCD2" transform="scale(0.479492 0.479492)" d="M299.93 491.971C304.945 496.284 309.429 501.752 313.964 506.588Q326.917 520.244 339.524 534.219C343.833 539.024 348.123 544.478 352.966 548.742C353.743 549.426 354.381 549.684 355.391 549.787C345.135 551.755 334.409 552.673 324.062 554.249C316.291 544.507 307.658 535.297 299.365 525.994C300.95 521.423 299.804 498.692 299.93 491.971Z"/>
	<path fill="#D82E3D" transform="scale(0.479492 0.479492)" d="M240.94 761.191C252.782 760.065 263.32 763.693 274.89 765.479C263.581 767.874 251.967 769.33 240.587 771.486C210.754 777.139 180.711 783.753 151.777 793.04C143.058 795.623 134.526 798.249 126.144 801.808C128.694 796.576 131.241 791.395 134.168 786.358C169.103 776.577 204.852 765.683 240.94 761.191Z"/>
	<path fill="#D82E3D" transform="scale(0.479492 0.479492)" d="M498.488 711.109C510.599 710.17 523.342 710.948 535.521 710.972L535.528 723.573C531.411 723.65 526.758 724.251 522.715 723.514C521.306 722.122 521.64 721.832 521.589 719.947C519.036 717.912 511.764 718.874 508.457 718.942L508.507 749.974L521.298 750.051L521.326 740.113L517.441 740.062C516.001 739.249 516.117 739.082 515.556 737.496L515.555 731.133L536.137 731.015C536.146 735.348 537.154 751.568 535.7 754.637C535.09 755.924 532.636 756.647 531.365 756.975C524.992 758.62 500.437 758.913 495.134 755.666C493.633 752.618 494.045 719.59 494.639 714.584C495.543 712.927 496.954 712.144 498.488 711.109Z"/>
	<path fill="#D82E3D" transform="scale(0.479492 0.479492)" d="M778.305 759.107C788.307 757.745 873.919 781.471 889.252 786.904C891.841 791.649 894.189 796.644 896.297 801.62C889.372 798.725 882.228 796.384 875.13 793.954C832.173 781.663 792.321 771.433 747.824 765.636C757.873 763.063 768.143 761.178 778.305 759.107Z"/>
	<path fill="#FEFEFE" transform="scale(0.479492 0.479492)" d="M512.58 289.257C514.464 290.841 516.155 292.673 517.889 294.419C510.133 304.98 500.065 314.061 490.952 323.444C474.732 340.146 458.538 356.775 442.686 373.832C437.273 379.657 429.711 385.667 425.594 392.41C420.568 396.997 416.497 402.349 411.742 407.163L396.118 406.959C408.645 395.003 420.486 382.269 432.62 369.909Q472.267 329.253 512.58 289.257Z"/>
	<path fill="#D82E3D" transform="scale(0.479492 0.479492)" d="M446.217 711.034C453.231 711.016 480.59 709.619 485.08 712.922C486.078 713.656 486.122 715.117 486.215 716.261C486.757 722.892 486.034 729.864 486.044 736.538C486.052 742.126 486.964 748.365 486.036 753.855C485.781 755.359 485.216 755.839 484.279 756.949C478.111 758.663 454.156 757.598 446.063 757.828Q446.482 734.432 446.217 711.034Z"/>
	<path fill="#030302" transform="scale(0.479492 0.479492)" d="M460.455 718.94C464.028 718.837 467.605 718.905 471.179 718.938C471.648 729.138 471.494 739.603 471.172 749.81C467.656 750.1 463.999 749.915 460.465 749.92L460.455 718.94Z"/>
	<path fill="#50BCD2" transform="scale(0.479492 0.479492)" d="M727.859 323.267L728.362 323.487C729.044 335.356 728.934 347.757 728.622 359.645C720.118 368.568 649.433 443.023 645.157 444.505L644.573 444.162C644.638 436.994 641.178 431.596 636.954 426.138C644.469 417.942 652.467 410.148 660.184 402.138L728.127 331.721C728.173 328.881 728.264 326.087 727.859 323.267Z"/>
	<path fill="#50BCD2" transform="scale(0.479492 0.479492)" d="M728.074 430.201C729.474 432.667 728.224 456.86 728.582 462.14C721.268 469.625 713.324 477.243 706.693 485.329C699.548 491.162 690.23 502.837 684.079 509.926C680.173 514.427 675.66 518.988 672.212 523.826C671.512 524.809 671.331 525.77 671.126 526.924C665.768 532.634 660.904 539.419 655.187 544.657Q641.237 543.058 627.222 542.203C636.421 530.09 648.001 519.374 658.467 508.363L709.277 454.141L722.465 439.997C724.12 438.25 726.133 436.593 727.609 434.72C728.524 433.56 728.143 431.599 728.074 430.201Z"/>
	<defs>
		<linearGradient id="gradient_0" gradientUnits="userSpaceOnUse" x1="287.50006" y1="474.14401" x2="382.03143" y2="511.22168">
			<stop offset="0" stop-color="#269FBA"/>
			<stop offset="1" stop-color="#65CAD9"/>
		</linearGradient>
	</defs>
	<path fill="url(#gradient_0)" transform="scale(0.479492 0.479492)" d="M299.674 438.384C308.369 448.055 317.591 457.266 326.56 466.682Q352.701 494.604 379.858 521.539C378.763 521.644 377.842 521.819 377.038 522.651C375.444 524.302 374.059 527.478 372.816 529.489C370.236 533.662 367.229 537.896 363.886 541.499C363.793 542.847 363.984 543.599 364.403 544.85C352.568 533.74 341.644 521.014 330.572 509.131C320.168 497.965 308.813 486.938 299.438 474.923C300.515 463.907 299.87 449.697 299.674 438.384Z"/>
	<defs>
		<linearGradient id="gradient_1" gradientUnits="userSpaceOnUse" x1="287.32425" y1="376.75769" x2="392.62949" y2="410.38721">
			<stop offset="0" stop-color="#2C9EB8"/>
			<stop offset="1" stop-color="#42C0D5"/>
		</linearGradient>
	</defs>
	<path fill="url(#gradient_1)" transform="scale(0.479492 0.479492)" d="M299.5 332.807C317.37 353.158 336.345 372.724 354.876 392.48C362.4 400.501 379.696 420.993 388.307 426.286C386.697 428.009 385.281 430.198 384.106 432.246C379.614 440.074 379.465 447.202 381.725 455.778Q354.991 428.307 328.947 400.181Q319.772 390.336 310.751 380.35C306.891 376.092 302.688 371.867 299.354 367.181C300.262 355.915 299.705 344.129 299.5 332.807Z"/>
	<path fill="#F7B142" transform="scale(0.479492 0.479492)" d="M553.517 331.317C574.851 353.042 596.024 375.049 618.043 396.077C617.291 400.095 617.011 404.187 614.379 407.461C566.676 382.498 502.15 380.423 450.585 393.493C443.991 395.164 437.422 397.415 431.081 399.88C425.448 402.069 418.124 406.652 412.199 407.136C412.047 407.149 411.894 407.154 411.742 407.163C416.497 402.349 420.568 396.997 425.594 392.41C428.868 391.282 432.096 389.283 435.261 387.832Q444.761 383.446 454.811 380.529C478.849 373.811 511.405 372.581 532.187 359.985C543.398 353.191 550.437 344.085 553.517 331.317Z"/>
	<path fill="#50BCD2" transform="scale(0.479492 0.479492)" d="M728.558 385.508L728.632 386.117C728.146 395.593 728.492 405.206 728.516 414.698C720.228 423.888 707.029 437.602 700.793 447.946C682.105 469.223 662.29 489.268 642.416 509.422C632.161 519.821 621.595 530.073 611.813 540.914C606.612 540.585 583.334 540.947 580.305 539.448L580.111 538.471C581.964 537.904 629.004 486.944 634.022 481.727C651.749 463.296 670.173 445.616 687.797 427.067C693.739 420.813 722.835 388.637 728.558 385.508Z"/>
	<path fill="#FBCD39" transform="scale(0.479492 0.479492)" d="M517.889 294.419C529.742 306.683 542.079 318.674 553.517 331.317C550.437 344.085 543.398 353.191 532.187 359.985C511.405 372.581 478.849 373.811 454.811 380.529Q444.762 383.446 435.261 387.832C432.096 389.283 428.868 391.282 425.594 392.41C429.711 385.667 437.273 379.657 442.686 373.832C458.538 356.775 474.732 340.146 490.952 323.444C500.065 314.061 510.133 304.98 517.889 294.419Z"/>
	<defs>
		<linearGradient id="gradient_2" gradientUnits="userSpaceOnUse" x1="290.1958" y1="399.47861" x2="434.10605" y2="540.99371">
			<stop offset="0" stop-color="#1EA4BF"/>
			<stop offset="1" stop-color="#7AD3DE"/>
		</linearGradient>
	</defs>
	<path fill="url(#gradient_2)" transform="scale(0.479492 0.479492)" d="M299.956 386.806C329.477 417.369 357.78 449.074 387.163 479.748C396.1 489.078 405.277 498.196 414.35 507.395C417.715 510.806 422.555 514.671 425.151 518.613C431.386 524.188 436.896 530.963 443.846 535.656L441.37 541.564C432.199 542.086 423.065 542.957 413.905 543.608C410.256 540.034 406.67 536.452 403.24 532.664Q363.577 493.819 326.858 452.18C318.996 443.415 305.662 429.833 299.449 420.44C300.671 409.533 299.91 397.813 299.956 386.806Z"/>
	<path fill="#50BCD2" transform="scale(0.479492 0.479492)" d="M425.151 518.613C431.386 524.188 436.896 530.963 443.846 535.656L441.37 541.564C432.199 542.086 423.065 542.957 413.905 543.608C410.256 540.034 406.67 536.452 403.24 532.664C409.357 530.066 421.961 528.143 428.313 530.575C431.649 531.853 434.924 534.471 438.39 535.261C439.448 535.503 439.464 535.502 440.396 534.878C440.023 533.922 440.23 534.065 439.61 533.522C437.379 531.563 426.281 521.824 425.37 520.197C425.109 519.732 425.224 519.141 425.151 518.613Z"/>
	<defs>
		<linearGradient id="gradient_3" gradientUnits="userSpaceOnUse" x1="556.74243" y1="383.62112" x2="473.32153" y2="522.12201">
			<stop offset="0" stop-color="#F6860A"/>
			<stop offset="1" stop-color="#FFC857"/>
		</linearGradient>
	</defs>
	<path fill="url(#gradient_3)" transform="scale(0.479492 0.479492)" d="M392.826 464.488C388.899 459.59 387.354 453.467 387.672 447.24C388.125 438.366 393.22 430.634 399.688 424.877C428.733 399.027 483.951 390.364 521.706 392.518C527.174 392.248 532.848 392.853 538.296 393.386C567.215 396.216 603.622 405.914 625.321 425.687C631.288 431.124 636.039 437.911 636.309 446.277C636.737 459.537 628.672 471.262 619.792 480.309C610.355 489.922 599.773 499.394 589.339 507.937C599.819 494.109 622.945 466.828 620.073 448.796C618.877 441.285 611.432 434.214 605.419 430.112C571.226 406.786 514.564 399.429 474.176 407.164C453.257 411.171 419.094 424.127 406.808 441.646C404.026 445.612 403.7 449.621 404.602 454.296C406.952 466.482 416.464 481.885 421.239 493.831C411.921 484.131 401.301 474.89 392.826 464.488Z"/>
	<path fill="#FEFEFE" transform="scale(0.479492 0.479492)" d="M392.826 464.488C388.899 459.59 387.354 453.467 387.672 447.24C388.125 438.366 393.22 430.634 399.688 424.877C428.733 399.027 483.951 390.364 521.706 392.518L521.292 393.696C517.173 394.101 513.028 394.345 508.921 394.852L509.083 395.16L508.146 395.22C514.983 395.471 522.22 395 529.107 394.866C528.922 394.926 528.738 394.99 528.552 395.047C519.736 397.741 506.978 396.923 497.485 398.016C465.197 401.734 413.884 413.348 397.382 443.948C394.802 448.732 394.008 453.644 393.502 458.998C393.333 460.782 393.379 462.787 392.826 464.488Z"/>
	<path fill="#F7B142" transform="scale(0.479492 0.479492)" d="M449.447 490.098L571.247 490.007L571.048 539.515L561.817 539.438Q529.443 538.749 497.069 539.417C479.049 539.823 461.075 540.827 443.071 541.552C445.135 536.282 447.793 530.675 448.924 525.134C450.7 516.437 449.339 499.661 449.447 490.098Z"/>
	<path fill="#030302" transform="scale(0.479492 0.479492)" d="M483.398 498.939C483.783 499.355 483.587 499.091 483.92 499.862C484.443 501.076 484.918 502.477 485.665 503.575C487.196 505.824 489.542 504.782 491.896 505.259C490.701 505.649 487.343 506.332 486.752 507.288C490.251 507.544 493.707 507.697 497.216 507.696C491.069 513.556 494.758 512.683 493.672 515.592C492.94 514.543 492.616 513.9 491.436 513.306C489.836 516.413 493.046 518.637 492.321 521.516C490.865 522.058 490.143 521.686 488.649 521.358C487.845 520.57 487.101 519.684 485.93 519.503C482.836 519.026 479.642 521.516 477.168 523.042C477.55 520.765 478.732 517.659 478.257 515.424C477.931 515.087 477.275 514.424 477.008 514.07C476.118 512.892 476.477 512.105 476.641 510.748L475.611 509.548L475.981 508.958L478.699 508.82C476.833 507.354 474.092 507.397 472.33 505.769C474.441 505.392 477.074 506.294 479.165 506.74C480.529 504.108 482.078 501.605 483.398 498.939Z"/>
	<path fill="#030302" transform="scale(0.479492 0.479492)" d="M540.172 497.994L540.554 498.786C541.528 500.782 542.163 502.141 544.076 503.408L544.025 503.313C546.299 504.73 551.649 507.182 552.85 509.306C551.56 509.238 550.295 509.192 549.003 509.209C549.863 510.626 551.819 510.623 552.133 512.1C551.212 513.534 550.87 513.762 549.293 514.506C548.518 514.872 547.913 515.018 547.599 515.846C546.626 518.416 548.227 522.263 548.949 524.813C545.557 523.091 541.812 520.975 538.1 520.06C535.569 521.126 533.12 522.205 530.41 522.742C531.66 520.335 532.89 517.977 533.839 515.43L533.527 514.965L531.825 515.295L531.048 514.749C530.546 512.48 529.943 511.928 528.319 510.335C528.509 508.515 532.351 507.68 533.754 506.226C533.979 505.993 534.195 505.751 534.415 505.513L540.172 497.994Z"/>
	<path fill="#030302" transform="scale(0.479492 0.479492)" d="M510.276 497.239C513.883 502.45 516.853 505.923 523.082 507.887C525.53 505.915 531.14 506.059 534.415 505.513C534.195 505.751 533.979 505.993 533.754 506.226C532.351 507.68 528.509 508.515 528.319 510.335C529.943 511.928 530.546 512.48 531.048 514.749L531.825 515.295L533.527 514.965L533.839 515.43C532.89 517.977 531.66 520.335 530.41 522.742C530.309 522.772 530.207 522.8 530.106 522.832C529.504 523.022 529.037 523.196 528.394 523.158C525.015 522.958 521.032 521.483 518.95 518.862C519.082 520.201 519.481 521.717 518.726 522.908C516.616 523.199 513.491 520.841 511.467 519.795C509.895 520.503 508.288 521.318 506.661 521.882C505.284 522.36 504.822 522.394 503.517 521.766C502.524 520.118 502.76 517.857 502.715 515.98C500.175 514.023 499.509 512.911 498.656 509.772C498.338 508.603 498.112 508.633 498.743 507.517Q501.129 506.969 503.537 506.53C506.652 504.25 508.421 500.537 510.276 497.239Z"/>
	<path fill="#F7B142" transform="scale(0.479492 0.479492)" d="M523.082 507.887C525.53 505.915 531.14 506.059 534.415 505.513C534.195 505.751 533.979 505.993 533.754 506.226C532.351 507.68 528.509 508.515 528.319 510.335C529.943 511.928 530.546 512.48 531.048 514.749L531.825 515.295L533.527 514.965L533.839 515.43C532.89 517.977 531.66 520.335 530.41 522.742C530.309 522.772 530.207 522.8 530.106 522.832C529.504 523.022 529.037 523.196 528.394 523.158C525.015 522.958 521.032 521.483 518.95 518.862C518.575 517.6 518.097 516.533 518.577 515.233C519.9 514.199 520.993 513.621 522.571 513.038C523.331 512.757 523.241 512.559 523.602 511.867L523.933 512.273L523.427 512.741L523.381 511.699C521.424 510.442 519.305 509.69 517.149 508.853C519.363 508.945 521.933 509.319 524.074 508.711L523.082 507.887Z"/>
	<path fill="#BF1133" transform="scale(0.479492 0.479492)" d="M309.197 324.78C324.346 311.333 340.406 298.836 357.881 288.526C409.43 258.112 471.836 245.543 531.241 249.056C585.222 252.248 638.234 268.558 682.96 299.33C694.24 307.09 704.477 315.717 714.83 324.64C711.533 328.239 708.313 332.032 704.869 335.484C696.328 324.678 660.626 302.359 647.376 295.464Q644.382 293.919 641.354 292.443Q638.326 290.967 635.266 289.56Q632.205 288.153 629.112 286.816Q626.02 285.48 622.899 284.214Q619.777 282.948 616.627 281.754Q613.477 280.559 610.301 279.437Q607.124 278.315 603.923 277.266Q600.722 276.216 597.498 275.24Q594.274 274.264 591.028 273.361Q587.783 272.459 584.518 271.63Q581.252 270.802 577.969 270.048Q574.686 269.295 571.386 268.616Q568.086 267.938 564.772 267.335Q561.458 266.731 558.131 266.204Q554.804 265.677 551.465 265.225Q548.127 264.774 544.779 264.398Q541.432 264.023 538.076 263.724Q534.721 263.426 531.359 263.203Q527.998 262.981 524.632 262.836Q521.267 262.69 517.899 262.621Q514.531 262.553 511.162 262.561Q507.794 262.569 504.426 262.654Q501.058 262.738 497.694 262.9Q494.329 263.061 490.969 263.3Q487.608 263.538 484.254 263.853Q480.9 264.168 477.554 264.559Q474.208 264.95 470.872 265.417Q467.536 265.885 464.212 266.428Q460.887 266.971 457.576 267.59Q454.264 268.209 450.968 268.903Q447.672 269.598 444.392 270.367Q441.112 271.136 437.851 271.98C426.691 274.903 415.346 278.312 404.592 282.481C398.442 284.865 392.067 288.558 385.801 290.351C385.606 290.406 385.408 290.445 385.211 290.492C381.54 296.09 376.876 301.226 372.655 306.434C360.291 321.689 346.886 336.428 335.119 352.11Q327.018 343.013 318.524 334.283C315.407 331.129 312.231 328.015 309.197 324.78Z"/>
	<path fill="#D82E3D" transform="scale(0.479492 0.479492)" d="M318.524 334.283C322.48 330.132 327.283 326.453 331.775 322.898C348.438 309.709 365.81 299.136 385.211 290.492C381.54 296.09 376.876 301.226 372.655 306.434C360.291 321.689 346.886 336.428 335.119 352.11Q327.018 343.013 318.524 334.283Z"/>
	<path fill="#D82E3D" transform="scale(0.479492 0.479492)" d="M565.003 189.231C623.446 198.938 675.51 217.547 723.764 252.377Q728.886 256.058 733.854 259.944Q738.823 263.829 743.63 267.912Q748.437 271.995 753.075 276.269Q757.714 280.544 762.175 285.002Q766.637 289.46 770.914 294.095Q775.192 298.73 779.278 303.535Q783.365 308.339 787.254 313.305Q791.143 318.27 794.828 323.389C802.065 333.494 809.342 344.03 815.026 355.104Q829.755 355.476 844.489 355.478L844.508 453.681C853.577 464.044 863.098 474 872.289 484.255C880.478 493.391 888.435 503.263 897.513 511.534C878.642 530.424 860.988 550.771 842.72 570.273C838.063 575.245 833.551 580.459 828.72 585.253C823.214 583.207 817.581 580.733 811.954 579.104C816.24 562.709 822.016 546.094 824.598 529.339C829.313 533.685 833.782 538.275 838.282 542.84C848.544 533.044 858.956 522.547 868.035 511.653C858.555 500.913 848.482 490.387 838.066 480.547L828.998 489.106L828.879 374.964L799.417 375.004Q794.131 362.354 786.913 350.698C750.461 290.578 691.899 247.388 625.863 224.618C608.906 218.771 591.904 215.139 574.558 210.886C571.272 203.713 567.924 196.563 565.003 189.231Z"/>
	<path fill="#D82E3D" transform="scale(0.479492 0.479492)" d="M210.979 355.107C215.992 344.826 222.492 334.594 229.061 325.212C271.972 263.931 334.587 221.807 406.127 201.206C423.534 196.193 441.342 192.863 459.162 189.73C454.999 197.23 451.218 204.403 448.006 212.369C370.536 224.81 296.479 267.442 250.208 331.373Q242.893 341.391 236.575 352.067Q230.258 362.742 224.997 373.976C214.859 373.346 204.675 373.378 194.521 373.257Q194.255 412.761 194.829 452.262C195.124 464.918 196.683 477.751 196.558 490.355C203.509 497.379 210.936 504.01 217.647 511.25L199.053 529.636C200.872 545.171 204.858 564.314 210.734 578.741C205.604 579.952 200.53 581.494 195.452 582.911C189.237 574.778 180.905 567.465 173.681 560.184L124.914 511.701L178.833 456.335Q178.223 405.734 178.462 355.131Q194.72 354.955 210.979 355.107Z"/>
	<path fill="#030302" transform="scale(0.479492 0.479492)" d="M183.845 477.505Q190.009 484.12 196.558 490.355C203.509 497.379 210.936 504.01 217.647 511.25L199.053 529.636Q191.356 537.317 183.76 545.096C173.244 533.161 161.387 521.957 149.763 511.1C161.623 500.61 172.716 488.79 183.845 477.505Z"/>
	<path fill="#BD670D" transform="scale(0.479492 0.479492)" d="M183.736 497.956C188.22 502.123 192.346 506.899 196.608 511.311Q190.07 517.537 183.809 524.042C181.48 523.539 173.18 513.54 171.078 511.272C175.042 506.617 179.463 502.326 183.736 497.956Z"/>
	<path fill="#D82E3D" transform="scale(0.479492 0.479492)" d="M699.873 719.817C707.623 720.795 715.416 721.821 723.074 723.372Q732.297 725.232 741.451 727.403C734.324 736.606 726.592 745.375 718.881 754.092C670.877 808.357 614.092 852.423 551.667 888.949Q538.817 896.485 525.774 903.683C521.224 906.201 516.633 909.026 511.845 911.055C497.911 904.207 484.467 895.911 471.097 888.03C408.87 851.345 352.291 809.413 304.829 754.45C297.385 745.83 289.419 737.045 283.168 727.495C289.526 726.092 295.873 724.638 302.287 723.516C309.592 722.034 317.056 721.05 324.416 719.847C364.405 766.721 415.641 805.295 468.004 837.23C482.283 845.939 496.833 854.641 511.721 862.256C524.488 856.941 537.884 847.923 549.844 840.657C607.63 805.548 653.858 769.766 699.873 719.817Z"/>
	<path fill="#F7B142" transform="scale(0.479492 0.479492)" d="M699.873 719.817C707.623 720.795 715.416 721.821 723.074 723.372C713.145 738.031 697.22 753.356 684.278 765.589Q674.813 774.639 664.981 783.289Q655.148 791.939 644.965 800.173Q634.783 808.408 624.267 816.212Q613.751 824.017 602.921 831.379Q592.09 838.74 580.963 845.646Q569.837 852.552 558.433 858.99Q547.029 865.428 535.368 871.388Q523.707 877.348 511.809 882.818C443.322 850.066 377.346 807.046 325.642 750.918C317.68 742.275 309.005 733.148 302.287 723.516C309.592 722.034 317.056 721.05 324.416 719.847C364.405 766.721 415.641 805.295 468.004 837.23C482.283 845.939 496.833 854.641 511.721 862.256C524.488 856.941 537.884 847.923 549.844 840.657C607.63 805.548 653.858 769.766 699.873 719.817Z"/>
	<path fill="#F15575" transform="scale(0.479492 0.479492)" d="M385.211 290.492C385.408 290.445 385.606 290.406 385.801 290.351C392.067 288.558 398.442 284.865 404.592 282.481C415.346 278.312 426.691 274.903 437.851 271.98Q441.112 271.136 444.392 270.367Q447.672 269.598 450.968 268.903Q454.264 268.209 457.576 267.59Q460.887 266.971 464.212 266.428Q467.536 265.885 470.872 265.417Q474.208 264.95 477.554 264.559Q480.9 264.168 484.254 263.853Q487.608 263.538 490.969 263.3Q494.329 263.061 497.694 262.9Q501.058 262.738 504.426 262.654Q507.794 262.569 511.162 262.561Q514.531 262.553 517.899 262.621Q521.267 262.69 524.632 262.836Q527.998 262.981 531.359 263.203Q534.721 263.426 538.076 263.724Q541.432 264.023 544.779 264.398Q548.127 264.774 551.465 265.225Q554.804 265.677 558.131 266.204Q561.458 266.731 564.772 267.335Q568.086 267.938 571.386 268.616Q574.686 269.295 577.969 270.048Q581.252 270.802 584.518 271.63Q587.783 272.459 591.029 273.361Q594.274 274.264 597.498 275.24Q600.722 276.216 603.923 277.266Q607.124 278.315 610.301 279.437Q613.477 280.559 616.627 281.754Q619.777 282.948 622.898 284.214Q626.02 285.48 629.112 286.816Q632.205 288.153 635.266 289.56Q638.326 290.967 641.354 292.443Q644.382 293.919 647.376 295.464C660.626 302.359 696.328 324.678 704.869 335.484C698.032 342.538 691.022 349.514 684.538 356.893C679.563 362.617 671.426 372.106 665.689 376.728C647.36 376.069 628.917 377.351 610.549 376.85Q603.865 370.393 597.354 363.76C593.926 360.738 590.758 357.368 587.525 354.137L580.775 347.527L535.489 300.922C530.48 295.761 517.629 280.923 512.486 278.159C505.898 281.552 494.586 295.085 488.78 301.028C472.822 317.363 457.142 334.014 440.98 350.142C437.617 353.66 434.153 357.121 430.909 360.748Q425.993 365.696 421 370.566C408.862 381.855 397.567 394.18 385.623 405.708Q368.569 386.374 350.335 368.149C345.084 362.986 340.134 357.502 335.119 352.11C346.886 336.428 360.291 321.689 372.655 306.434C376.876 301.226 381.54 296.09 385.211 290.492Z"/>
	<path fill="#BF1133" transform="scale(0.479492 0.479492)" d="M631.512 289.058C628.443 295.074 624.096 300.662 620.277 306.231L599.134 337.005C595.252 342.635 590.969 348.237 587.525 354.137L580.775 347.527C587.624 340.332 593.735 332.236 600.154 324.645Q615.572 306.622 631.512 289.058Z"/>
	<path fill="#BF1133" transform="scale(0.479492 0.479492)" d="M430.909 360.748C417.755 338.395 403.825 316.383 390.232 294.287C399.108 305.019 409.29 315.057 418.676 325.363C426.07 333.483 433.09 342.54 440.98 350.142C437.617 353.66 434.153 357.121 430.909 360.748Z"/>
	<path fill="#BF1133" transform="scale(0.479492 0.479492)" d="M350.335 368.149C356.162 360.674 361.199 352.423 366.421 344.514C372.198 335.764 378.298 327.06 383.386 317.883Q395.57 334.036 406.985 350.742C411.585 357.355 415.974 364.286 421 370.566C408.862 381.855 397.567 394.18 385.623 405.708Q368.569 386.374 350.335 368.149Z"/>
	<path fill="#BF1133" transform="scale(0.479492 0.479492)" d="M643.625 303.737C657.828 320.945 670.529 339.494 684.538 356.893C679.563 362.617 671.426 372.106 665.689 376.728C647.36 376.069 628.917 377.351 610.549 376.85Q603.865 370.393 597.354 363.76C612.624 343.787 629.652 324.633 643.625 303.737Z"/>
	<path fill="#F7B142" transform="scale(0.479492 0.479492)" d="M512.055 121.198C518.61 127.801 524.387 135.937 530.269 143.193Q540.153 155.451 549.802 167.896C555.079 174.672 560.922 181.652 565.003 189.231C567.924 196.563 571.272 203.713 574.558 210.886C591.904 215.139 608.906 218.771 625.863 224.618C691.899 247.388 750.461 290.578 786.913 350.698Q794.131 362.354 799.417 375.004L828.879 374.964L828.998 489.106Q817.745 499.916 806.276 510.497C807.467 498.811 809.217 487.214 810.088 475.49C811.936 450.595 810.998 418.441 806.429 393.949L766.658 394.113C766.717 382.681 766.888 371.241 766.526 359.814Q752.612 341.221 736.906 324.115L736.832 302.802C734.025 305.717 731.168 308.586 728.675 311.779C681.094 269.116 631.054 245.874 568.515 233.853C551.553 207.234 532.334 181.172 511.904 157.095Q488.641 185.562 467.868 215.894C463.739 221.948 459.293 227.999 455.493 234.254C399.413 242.948 336.996 270.912 296.972 311.815C293.24 307.692 289.121 303.623 285.955 299.047C285.909 307.615 285.393 316.476 286.046 325.007C266.872 349.661 256.837 364.28 246.156 394.134Q232.191 394.141 218.227 394.369C216.775 409.247 215.2 424.129 214.723 439.078Q214.525 445.46 214.559 451.844Q214.592 458.229 214.855 464.608Q215.119 470.988 215.612 477.353Q216.106 483.719 216.83 490.063Q217.553 496.406 218.505 502.72Q219.457 509.033 220.636 515.308Q221.816 521.583 223.221 527.811Q224.626 534.04 226.255 540.213C229.012 550.815 231.783 561.715 235.775 571.935C227.5 574.162 218.835 576 210.734 578.741C204.858 564.314 200.872 545.171 199.053 529.636L217.647 511.25C210.936 504.01 203.509 497.379 196.558 490.355C196.683 477.751 195.124 464.918 194.829 452.262Q194.255 412.761 194.521 373.257C204.675 373.378 214.859 373.346 224.997 373.976Q230.258 362.742 236.575 352.067Q242.893 341.391 250.208 331.373C296.479 267.442 370.536 224.81 448.006 212.369C451.218 204.403 454.999 197.23 459.162 189.73C469.37 174.607 480.404 160.276 491.743 145.996C498.367 137.654 504.961 129.146 512.055 121.198Z"/>
	<path fill="#D82E3D" transform="scale(0.479492 0.479492)" d="M506.003 546.76Q538.681 546.329 571.346 547.346C604.851 548.205 638.307 549.65 671.628 553.501C686.306 555.198 700.93 558.006 715.457 560.687C742.043 565.594 768.404 571.041 794.24 579.108C805.35 582.577 820.601 586.263 830.448 592.124L830.835 741.88C814.755 736.595 797.445 733.162 780.992 729.194Q748.647 721.346 715.888 715.455Q683.13 709.564 650.077 705.652C636.855 704.144 623.542 703.289 610.271 702.304Q563.306 698.422 516.182 698.204C423.446 699.528 334.009 707.726 243.668 729.311C226.749 733.354 209.601 737.34 192.98 742.455C192.545 727.693 192.833 712.844 192.804 698.073L193.083 589.381C246.5 573.933 302.099 561.548 357.366 554.959C376.015 552.735 394.868 551.552 413.611 550.397Q459.758 547.342 506.003 546.76Z"/>
	<path fill="#030302" transform="scale(0.479492 0.479492)" d="M515.428 554.747Q532.249 554.4 549.072 554.647Q565.894 554.894 582.698 555.737Q599.501 556.579 616.264 558.015Q633.027 559.45 649.729 561.478Q666.431 563.505 683.051 566.122Q699.671 568.739 716.188 571.942Q732.704 575.145 749.098 578.93Q765.491 582.715 781.74 587.077C789.304 589.096 811.06 593.422 816.333 597.931C818.172 599.504 818.673 602.176 818.882 604.473C819.335 609.444 818.854 614.681 818.816 619.679L818.842 648.677L818.898 693.904C818.916 702.046 819.204 710.31 818.857 718.439C818.763 720.64 818.712 724.534 817.333 726.251C815.821 726.589 814.421 726.391 812.926 726.063C806.183 724.583 799.582 722.274 792.873 720.611C772.394 715.535 751.279 710.737 730.491 707.07C712.32 703.865 694.118 700.536 675.831 698.067Q633.386 692.455 590.66 689.71Q547.933 686.965 505.119 687.099C483.371 687.005 461.753 688.17 440.065 689.608Q410.17 691.61 380.408 695.06Q350.646 698.51 321.085 703.4Q291.525 708.289 262.237 714.607Q232.949 720.924 204.002 728.655Q204.598 662.636 204.087 596.616C210.53 594.571 217.336 593.17 223.898 591.521Q247.8 585.492 271.926 580.436C307.566 572.915 343.65 566.044 379.86 561.913C425.008 556.763 470.049 555.504 515.428 554.747Z"/>
	<path fill="#FEFEFE" transform="scale(0.479492 0.479492)" d="M512.446 576.602C518.647 576.515 524.89 576.837 531.091 577.016L531.413 651Q546.261 651.084 561.104 651.436L561.116 668.519C544.778 668.56 528.396 667.999 512.056 667.776C511.474 650.155 511.891 632.37 511.879 614.731C511.87 602.231 511.024 589.002 512.446 576.602Z"/>
	<path fill="#FEFEFE" transform="scale(0.479492 0.479492)" d="M689.049 587.685C705.33 589.814 721.526 593.461 737.701 596.31Q737.801 604.897 737.667 613.483Q723.245 610.969 708.85 608.31C708.599 614.801 708.843 621.376 708.882 627.876C717.365 629.641 725.966 631.038 734.488 632.621L734.377 649.146L708.589 644.353L708.508 651.75L708.51 665.236Q723.032 667.737 737.465 670.708L737.462 687.696C730.613 686.954 723.695 685.37 716.879 684.281C707.536 682.789 698.114 681.626 688.815 679.88C688.565 649.156 688.914 618.409 689.049 587.685Z"/>
	<path fill="#FEFEFE" transform="scale(0.479492 0.479492)" d="M567.639 577.536C573.917 577.416 580.309 578.025 586.577 578.412Q602.062 579.297 617.522 580.551L617.557 598.057C607.54 597.24 597.486 596.898 587.469 596.018C587.299 602.584 587.425 609.181 587.433 615.751C595.615 616.139 603.808 616.454 611.964 617.22L611.993 633.667C603.728 633.447 595.413 632.637 587.154 632.147L587.104 644.687L587.183 653.06Q602.661 653.71 618.089 655.104L618.072 672.134C601.265 670.545 584.403 669.707 567.555 668.693L567.639 577.536Z"/>
	<path fill="#FEFEFE" transform="scale(0.479492 0.479492)" d="M746.792 598.165C764.098 601.083 781.548 606.395 798.494 610.952L798.512 627.853Q782.324 624.002 766.317 619.459Q766.104 629.534 766.298 639.61C777.124 641.594 787.762 644.827 798.468 647.399L798.551 701.868C780.982 698.609 763.515 693.325 746.033 689.447L746.015 672.163C757.192 674.154 768.424 676.793 779.485 679.372L779.463 659.31C768.547 657.252 757.75 654.487 746.946 651.911C746.951 634.069 746.114 615.98 746.792 598.165Z"/>
	<path fill="#FEFEFE" transform="scale(0.479492 0.479492)" d="M281.499 598.151L281.697 598.681Q270.978 620.615 260.024 642.431C266.502 658.746 274.853 674.117 281.802 690.206L259.892 694.283C255.264 686.079 252.001 676.292 248.322 667.579C243.626 677.852 244.677 687.201 245.027 698.132L237.612 700.06Q231.488 701.557 225.316 702.843C224.745 688.233 225.074 673.481 225.062 658.854C225.048 643.051 224.726 627.169 225.404 611.381C231.668 609.714 237.909 608.054 244.26 606.744C244.647 617.953 244.512 629.331 244.142 640.539C249.979 628.124 254.375 615.088 260.466 602.731Q271.011 600.571 281.499 598.151Z"/>
	<path fill="#FEFEFE" transform="scale(0.479492 0.479492)" d="M625.749 581.414C643.621 581.523 661.721 585.02 679.521 586.622L679.517 604.62Q662.279 602.686 644.997 601.19Q644.803 629.014 644.989 656.839C650.442 657.526 655.924 657.952 661.382 658.658Q661.389 649.419 661.079 640.186C658.551 639.62 656.072 639.524 653.497 639.413C653.486 634.076 653.172 628.541 653.644 623.23C653.708 622.517 653.597 622.898 654.409 622.216C663.177 622.87 672.028 624.072 680.752 625.183C681.451 642.924 680.889 660.89 680.798 678.65Q655.817 675.278 630.724 672.87C629.257 670.788 627.564 668.861 625.938 666.902C625.493 638.426 625.826 609.898 625.749 581.414Z"/>
	<path fill="#FEFEFE" transform="scale(0.479492 0.479492)" d="M343.151 588.205L343.925 588.331C345.01 590.488 344.435 669.279 344.458 679.105L324.996 682.406C322.511 675.623 320.467 668.683 318.148 661.841C314.526 651.155 310.697 640.495 307.771 629.594C307.067 636.358 307.443 643.476 307.443 650.281L307.469 685.229L297.556 687.136L288.557 688.772Q288.809 642.743 288.587 596.714C295.624 595.775 302.667 594.556 309.652 593.284C314.163 605.845 322.019 625.613 324.16 638.215C326.174 623.959 325.033 605.321 325.048 590.602C331.011 589.423 337.114 588.874 343.151 588.205Z"/>
	<path fill="#FEFEFE" transform="scale(0.479492 0.479492)" d="M394.598 581.796C400.045 581.209 404.552 582.175 409.928 582.532C410.318 610.076 410.112 637.671 410.063 665.218Q408.224 666.754 406.647 668.559Q405.07 670.363 403.794 672.392C391.354 674.753 378.197 674.73 365.604 676.508C361.275 676.792 356.868 677.627 352.562 678.211L352.697 586.636C366.41 584.212 380.737 583.243 394.598 581.796Z"/>
	<path fill="#030302" transform="scale(0.479492 0.479492)" d="M386.764 599.721C387.314 599.621 387.945 599.682 388.506 599.685C389.786 601.512 389.121 650.403 389.141 657.081L376.122 658.423C375.202 658.521 374.512 658.441 373.607 658.26C372.43 654.391 373.355 609.035 373.369 601.158L386.764 599.721Z"/>
	<path fill="#FEFEFE" transform="scale(0.479492 0.479492)" d="M490.972 576.735C495.564 576.588 500.168 576.601 504.763 576.553C503.71 589.38 500.936 602.326 498.933 615.049C496.144 632.757 493.791 650.65 490.403 668.25Q478.02 668.555 465.643 669.044C463.815 658.473 462.954 647.643 461.724 636.985C461.119 631.74 460.82 625.976 459.23 620.935Q456.356 645.234 452.795 669.441C445.399 669.594 437.933 670.353 430.554 670.89C426.755 649.823 423.803 628.669 420.396 607.544C419.017 598.331 417.494 589.133 416.663 579.85C423.524 579.314 430.445 579.105 437.319 578.655C437.945 588.491 439.431 598.403 440.611 608.192C441.846 618.425 442.804 628.694 444.607 638.847C445.555 618.344 449.511 598.249 451.7 577.894C458.122 577.44 464.587 577.491 471.023 577.409C472.845 591.206 474.004 605.137 475.373 618.988C476.049 625.815 476.352 632.967 477.723 639.677C478.71 633.968 478.963 628.002 479.57 622.234Q481.131 607.569 483.13 592.958C483.794 587.94 484.052 582.194 485.766 577.449C487.248 576.615 489.292 576.787 490.972 576.735Z"/>
</svg>
