<?xml version="1.0" encoding="utf-8" ?>
<svg xmlns="http://www.w3.org/2000/svg" xmlns:xlink="http://www.w3.org/1999/xlink" width="491" height="491">
	<path transform="scale(0.479492 0.479492)" d="M512.16 90.7811Q545.549 131.414 578.401 172.482Q589.117 174.597 599.811 176.824Q603.186 177.53 606.547 178.302Q609.908 179.074 613.253 179.911Q616.598 180.749 619.926 181.653Q623.254 182.556 626.564 183.525Q629.873 184.493 633.163 185.527Q636.453 186.56 639.722 187.658Q642.991 188.756 646.238 189.917Q649.485 191.079 652.708 192.305Q655.931 193.53 659.13 194.818Q662.329 196.107 665.501 197.458Q668.674 198.809 671.82 200.222Q674.965 201.635 678.082 203.11Q681.2 204.584 684.287 206.12Q687.375 207.655 690.432 209.251Q693.489 210.847 696.514 212.503Q699.539 214.159 702.531 215.873Q705.522 217.588 708.48 219.361Q711.437 221.135 714.36 222.965Q717.282 224.796 720.167 226.684Q723.053 228.572 725.901 230.517Q728.749 232.461 731.558 234.461Q734.367 236.461 737.137 238.516Q739.906 240.57 742.635 242.679Q745.363 244.788 748.05 246.949Q750.737 249.111 753.38 251.326Q756.024 253.54 758.623 255.806Q761.223 258.071 763.777 260.388Q766.332 262.704 768.841 265.07Q771.349 267.436 773.811 269.851Q776.273 272.266 778.686 274.729Q781.1 277.192 783.465 279.702Q785.83 282.211 788.145 284.767C801.33 299.403 815.476 318.833 826.255 335.376C838.618 335.719 851.084 335.17 863.418 336.014C864.475 336.98 864.373 337.119 864.455 338.555C864.959 347.428 864.396 356.584 864.419 365.485C864.487 392.591 863.882 419.934 865.017 446.996C869.343 450.262 872.984 455.87 876.771 459.865C893.038 477.029 908.712 494.829 925.425 511.551C912.276 526.331 897.96 540.157 884.404 554.584L854.856 586.177C848.649 592.924 842.648 599.876 836.235 606.429C836.826 621.628 836.414 637.011 836.471 652.23C851.356 655.115 865.954 660.679 880.287 665.545C896.652 671.1 913.515 676.469 929.322 683.475C915.922 695.499 901.267 706.494 887.209 717.748C880.702 722.956 873.54 728.026 867.765 734.031C874.669 744.467 880.025 756.677 885.778 767.822C893.026 781.864 901.353 796.087 907.071 810.804C899.249 809.05 891.314 805.77 883.652 803.249Q867.263 797.928 850.654 793.339Q822.938 785.519 794.727 779.729Q766.517 773.94 737.961 770.212C737.665 768.085 737.591 765.938 737.472 763.795C731.635 769.439 726.284 775.655 720.741 781.592Q707.14 796.45 692.473 810.257C652.955 847.47 608.203 877.738 561.942 905.829C547.783 914.426 526.466 928.67 511.287 933.871C497.313 926.032 483.007 918.802 469.158 910.737Q459.489 905.221 449.984 899.428Q440.479 893.636 431.145 887.571Q421.81 881.506 412.655 875.175Q403.499 868.844 394.531 862.251Q385.562 855.658 376.787 848.809Q368.012 841.96 359.438 834.861Q350.864 827.762 342.499 820.418Q334.134 813.075 325.984 805.493C309.66 790.168 295.608 772.617 279.67 756.942C280.678 761.201 281.041 765.685 281.667 770.023C265.27 774.162 248.171 775.589 231.592 779.003Q201.909 784.903 172.731 792.938Q143.553 800.973 115.034 811.101C126.261 785.822 142.675 757.825 158.469 735.106C152.537 729.924 145.777 725.349 139.512 720.554C124.602 709.14 109.41 697.522 95.7077 684.68C126.043 673.167 156.352 662.28 187.4 652.836C187.403 636.435 187.843 619.902 187.192 603.518C179.366 594.692 170.749 586.501 162.419 578.152L123.54 539.257C114.479 530.251 104.581 521.479 96.7017 511.411C117.358 490.043 138.29 468.996 158.478 447.18Q157.632 390.985 158.331 334.788C171.82 334.099 185.573 334.569 199.092 334.504C201.479 330.043 204.211 325.742 207.042 321.551C256.187 248.812 325.474 202.727 409.861 180.114C422.186 176.811 434.752 174.446 447.273 172.024Q465.153 149.78 482.667 127.248C492.255 114.987 501.698 102.315 512.16 90.7811ZM863.418 336.014C862.208 358.619 863.459 382.009 863.517 404.706C863.536 412.405 862.311 441.244 863.846 446.326L865.017 446.996C863.882 419.934 864.487 392.591 864.419 365.485C864.396 356.584 864.959 347.428 864.455 338.555C864.373 337.119 864.475 336.98 863.418 336.014Z"/>
	<path fill="#BE680D" transform="scale(0.479492 0.479492)" d="M282.162 360.779C283.141 361.371 283.709 361.906 284.2 362.968C285.351 365.456 284.601 368.897 283.627 371.304C282.552 370.446 281.874 369.56 281.39 368.273C280.427 365.717 281.088 363.164 282.162 360.779Z"/>
	<path fill="#267589" transform="scale(0.479492 0.479492)" d="M402.074 409.712L407.435 409.557C404.438 411.379 401.495 413.38 398.139 414.47C395.664 413.18 393.281 411.529 390.908 410.05C394.63 410.057 398.355 409.859 402.074 409.712Z"/>
	<path fill="#810B20" transform="scale(0.479492 0.479492)" d="M629.863 407.858C630.933 408.962 632.021 410.054 633.073 411.176C631.396 412.905 629.643 414.594 628.15 416.486C624.321 413.878 619.881 411.38 616.42 408.333C620.908 408.018 625.364 408.405 629.863 407.858Z"/>
	<path fill="#D92F3D" transform="scale(0.479492 0.479492)" d="M617.768 395.859L629.863 407.858C625.364 408.405 620.908 408.018 616.42 408.333L614.484 407.452C616.425 403.564 617.282 400.137 617.768 395.859Z"/>
	<path fill="#185560" transform="scale(0.479492 0.479492)" d="M706.658 485.314C713.751 477.31 720.965 469.77 728.523 462.185C728.561 463.593 728.838 465.856 728.406 467.151C727.14 470.948 718.649 478.712 715.622 481.904C713.457 484.186 711.258 486.314 708.632 488.068C709.401 486.502 710.109 484.922 710.799 483.319C709.57 483.194 708.321 485.02 706.658 485.314Z"/>
	<path transform="scale(0.479492 0.479492)" d="M863.418 336.014C864.475 336.98 864.373 337.119 864.455 338.555C864.959 347.428 864.396 356.584 864.419 365.485C864.487 392.591 863.882 419.934 865.017 446.996L863.846 446.326C862.311 441.244 863.536 412.405 863.517 404.706C863.459 382.009 862.208 358.619 863.418 336.014Z"/>
	<path fill="#185560" transform="scale(0.479492 0.479492)" d="M728.573 388.353C729.898 398.171 729.212 409.465 728.662 419.384C723.321 425.552 708.811 443.714 702.105 446.434C704.084 439.697 722.879 420.743 728.437 414.731Q728.411 401.541 728.573 388.353Z"/>
	<path fill="#185560" transform="scale(0.479492 0.479492)" d="M693.895 550.128C696.114 546.671 699.11 543.556 701.779 540.433Q714.453 525.617 728.348 511.94C728.364 513.451 728.32 514.665 727.658 516.05C724.292 523.089 706.73 539.871 700.708 545.981C698.538 548.182 697.127 549.895 693.895 550.128Z"/>
	<path fill="#267589" transform="scale(0.479492 0.479492)" d="M706.658 485.314C708.321 485.02 709.57 483.194 710.799 483.319C710.109 484.922 709.401 486.502 708.632 488.068C703.115 494.368 696.827 500.076 691.039 506.138C684.733 512.741 678.632 520.148 671.622 526.011C671.804 524.978 672 524.121 672.548 523.211C676.235 517.091 700.932 489.744 706.658 485.314Z"/>
	<path fill="#F8B143" transform="scale(0.479492 0.479492)" d="M838.385 502.877C841.664 504.728 844.222 508.56 846.499 511.476C844.047 514.879 841.022 518.231 837.645 520.728C834.661 517.502 831.391 514.522 828.213 511.488C831.508 508.442 834.79 505.57 838.385 502.877Z"/>
	<path fill="#4FBCD1" transform="scale(0.479492 0.479492)" d="M402.906 532.157L403.39 532.104C411.093 531.183 418.559 528.138 426.425 529.933C429.799 530.703 438.069 537.241 440.812 534.218C441.024 533.984 441.179 533.705 441.363 533.449L444.135 535.479L441.498 541.923C432.304 541.954 422.949 543.071 413.777 543.779C410.014 540.001 406.378 536.209 402.906 532.157Z"/>
	<path fill="#D92F3D" transform="scale(0.479492 0.479492)" d="M836.024 701.24C841.973 702.415 847.985 704.727 853.78 706.56C863.466 709.624 872.975 712.377 882.973 714.308L878.235 718.12C875.909 720.085 873.59 721.907 871.063 723.606C859.644 719.448 848.085 716.066 836.396 712.772Q836.08 707.01 836.024 701.24Z"/>
	<path fill="#D92F3D" transform="scale(0.479492 0.479492)" d="M183.525 703.055C183.805 702.999 184.081 702.906 184.367 702.886C184.915 702.848 185.655 702.894 186.003 703.363C187.505 705.388 186.817 711.347 186.771 713.948C175.673 717.4 164.484 720.556 153.401 724.043L150.237 721.353L142.763 715.208C156.211 710.672 169.852 706.845 183.525 703.055Z"/>
	<path fill="#F8B143" transform="scale(0.479492 0.479492)" d="M457.512 438.377C466.791 438.131 476.233 438.105 485.507 438.478L485.495 457.009C476.241 456.979 466.991 456.704 457.73 456.719Q457.503 447.549 457.512 438.377Z"/>
	<path fill="#F8B143" transform="scale(0.479492 0.479492)" d="M538.505 438.507L567.239 438.523L567.269 456.726L538.487 456.719L538.505 438.507Z"/>
	<path fill="#F8B143" transform="scale(0.479492 0.479492)" d="M496.57 439.034L527.97 439.031L527.819 456.597L496.802 456.55L496.57 439.034Z"/>
	<path fill="#FEFEFE" transform="scale(0.479492 0.479492)" d="M728.35 478.09L727.949 483.9C714.217 496.603 701.917 511.149 689.188 524.871C683.192 531.335 674.746 541.679 667.41 546.111C665.756 546.698 660.071 545.24 658.04 544.943C662.587 540.272 667.601 536.04 672.306 531.522C683.756 520.528 695.107 509.475 706.75 498.677C714.038 491.919 720.895 484.647 728.35 478.09Z"/>
	<path fill="#D92F3D" transform="scale(0.479492 0.479492)" d="M836.699 742.233C847.92 747.01 860.153 750.423 871.839 753.945C874.502 758.471 876.719 763.456 879.087 768.154L865.879 763.763C850.024 759.426 834.291 754.519 818.363 750.47C822.62 749.063 832.889 748.914 835.704 746.193C836.856 745.079 836.602 743.725 836.699 742.233Z"/>
	<path fill="#4FBCD1" transform="scale(0.479492 0.479492)" d="M362.393 542.51C369.215 536.361 372.799 527.237 378.67 520.267C383.982 525.701 399.157 543.485 406.202 544.231Q386.667 545.736 367.22 548.126L362.393 542.51Z"/>
	<path fill="#D92F3D" transform="scale(0.479492 0.479492)" d="M184.326 688.997L185.715 689.038C187.629 691.544 186.796 696.566 186.693 699.63Q163.709 706.009 141.194 713.885L137.507 711.105C134.92 709.254 132.404 707.288 129.863 705.373C135.97 702.39 143.056 701.137 149.582 699.325C161.179 696.103 172.92 692.843 184.326 688.997Z"/>
	<path fill="#185560" transform="scale(0.479492 0.479492)" d="M644.569 444.638C653.686 439.124 672.999 417.468 681.185 408.879C696.899 392.39 712.65 375.832 728.63 359.605C728.586 361.891 728.498 364.186 728.515 366.472C723.317 371.618 718.573 377.164 713.474 382.402C700.286 395.949 686.984 409.444 673.994 423.179C663.91 433.842 654.099 444.759 643.955 455.366L644.569 444.638Z"/>
	<path fill="#D92F3D" transform="scale(0.479492 0.479492)" d="M836.037 686.237C855.359 692.772 874.984 698.472 894.425 704.652L890.218 708.088L884.471 713.191C868.228 708.792 852.152 703.514 836.075 698.551C835.992 694.451 836.048 690.338 836.037 686.237Z"/>
	<path fill="#FEFEFE" transform="scale(0.479492 0.479492)" d="M295.024 479.994L337.643 522.693C346.342 531.394 354.893 540.419 363.984 548.706L356.109 549.709C354.734 549.523 353.989 549.265 352.928 548.354C346.844 543.135 341.681 536.35 336.286 530.404C324.459 517.368 312.598 503.989 300.014 491.693C299.973 499.245 301.453 519.528 298.75 525.258L295.014 521.197L295.024 479.994Z"/>
	<path fill="#D92F3D" transform="scale(0.479492 0.479492)" d="M836.44 715.18C846.994 719.455 858.789 722.148 869.717 725.432C866.517 727.373 863.452 729.601 860.358 731.71C862.575 736.271 864.956 740.664 867.475 745.062C868.74 747.388 869.853 749.838 871.029 752.212C859.73 747.638 848.176 744.208 836.388 741.169Q836.298 728.174 836.44 715.18Z"/>
	<path fill="#D92F3D" transform="scale(0.479492 0.479492)" d="M183.959 675.066C184.598 674.894 184.287 674.934 185.074 674.954C185.679 674.969 185.676 674.843 186.024 675.327C187.546 677.436 186.762 683.637 186.694 686.332C178.4 688.32 170.158 690.974 161.967 693.354C150.711 696.625 139.285 699.496 128.694 704.62L124.986 701.633L117.231 695.478C125.78 692.365 134.715 690.053 143.428 687.426L183.959 675.066Z"/>
	<path fill="#810B20" transform="scale(0.479492 0.479492)" d="M610.869 377.086L644.515 376.963C651.3 376.94 658.278 376.655 665.038 377.228C655.777 386.035 647 396.079 638.632 405.731C629.442 396.121 620.003 386.757 610.869 377.086Z"/>
	<path fill="#D92F3D" transform="scale(0.479492 0.479492)" d="M836.329 672.706C860.227 678.018 883.932 686.642 907.214 694.136L901.806 698.966L896.487 703.329C884.639 699.207 872.598 695.584 860.655 691.746C852.658 689.176 844.52 686.079 836.343 684.195L836.329 672.706Z"/>
	<path fill="#FEFEFE" transform="scale(0.479492 0.479492)" d="M632.657 421.494C636.232 417.665 639.556 413.603 643.193 409.832C652.979 399.682 663.19 389.931 673.053 379.851C682.668 370.025 692.053 359.993 701.727 350.22C710.556 341.301 718.828 331.254 728.247 323.019L728.487 331.242C720.311 339.252 712.616 347.598 704.687 355.835L660.135 401.653C652.384 409.563 645.104 418.557 636.708 425.748L632.657 421.494Z"/>
	<path fill="#D92F3D" transform="scale(0.479492 0.479492)" d="M211.109 753.132C219.066 751.608 227.067 754.623 234.532 756.999C224.054 760.687 212.783 762.362 201.976 764.901Q178.229 770.367 154.877 777.327C148.71 779.294 142.563 781.33 136.29 782.938C138.11 779.019 140.43 775.287 142.574 771.536C147.501 769.395 153.005 767.994 158.141 766.393Q184.256 758.288 211.109 753.132Z"/>
	<path fill="#FEFEFE" transform="scale(0.479492 0.479492)" d="M294.781 320.832Q342.66 372.481 391.705 423.026L388.685 426.06C380.086 421.835 358.19 395.727 350.172 387.132C333.087 368.817 315.85 350.73 299.109 332.088C299.837 343.502 299.967 355.463 299.013 366.855L295.014 362.974C294.99 348.959 294.446 334.829 294.781 320.832Z"/>
	<path fill="#D92F3D" transform="scale(0.479492 0.479492)" d="M811.291 752.128C817.53 750.55 870.817 768.47 880.097 770.663C882.736 774.857 885.044 779.061 887.25 783.49Q877.469 780.32 867.622 777.363C860.662 774.797 853.119 772.895 845.959 770.913Q830.923 766.625 815.646 763.299Q800.368 759.972 784.911 757.621C793.538 755.163 802.467 753.68 811.291 752.128Z"/>
	<path fill="#D92F3D" transform="scale(0.479492 0.479492)" d="M185.064 659.052L186.158 659.038C187.883 661.528 186.808 668.199 186.648 671.307C175.683 674.181 164.826 677.648 154.029 681.092C141.276 685.16 128.481 689.21 116.403 695.041L111.762 691.109C109.747 689.529 107.668 688.043 105.592 686.546Q144.855 671.43 185.064 659.052Z"/>
	<path fill="#D92F3D" transform="scale(0.479492 0.479492)" d="M836.415 657.193C845.397 660.53 854.948 662.861 864.075 665.874L919.257 684.593L914.234 688.602L908.599 692.82Q886.53 685.1 864.24 678.045C854.922 675.125 845.385 672.567 836.266 669.084L836.415 657.193Z"/>
	<path fill="#FEFEFE" transform="scale(0.479492 0.479492)" d="M511.208 188.259C515.307 191.584 517.473 201.602 519.447 206.493L538.168 206.515C533.219 210.601 528.222 214.773 523.65 219.278Q526.377 228.066 528.415 237.038C522.963 233.61 517.628 230.096 512.599 226.065Q504.224 231.751 495.57 237.004L501.014 218.885C495.698 215.211 490.69 210.853 485.655 206.797L504.49 206.486Q507.98 197.421 511.208 188.259Z"/>
	<path fill="#FEFEFE" transform="scale(0.479492 0.479492)" d="M614.744 541.346C624.942 529.403 636.473 518.426 647.598 507.363C673.998 481.11 701.438 455.952 728.126 430.014C728.103 431.756 728.354 432.855 727.324 434.339C724.151 438.913 719.416 443.109 715.546 447.159L696.967 466.846L659.406 507.091C653.99 512.832 648.21 518.229 642.799 523.977C637.245 529.877 632.026 536.1 626.677 542.185C622.698 541.958 618.72 541.63 614.744 541.346Z"/>
	<path fill="#FEFEFE" transform="scale(0.479492 0.479492)" d="M728.484 377.311L728.524 385.525C717.051 392.66 699.161 414.856 688.921 425.623C662.675 453.217 635.102 479.523 609.412 507.671C605.318 512.156 583.342 536.634 580.061 537.902L579.992 528.796C596.165 512.801 612.936 497.48 628.85 481.199C636.243 473.635 642.963 465.419 650.264 457.765L728.484 377.311Z"/>
	<path fill="#FEFEFE" transform="scale(0.479492 0.479492)" d="M295.013 426.78C316.783 450.384 340.108 472.97 363.4 495.071Q379.977 510.731 395.965 526.993C401.023 532.088 406.875 537.212 411.069 543.028C409.929 544.179 407.747 544.134 406.202 544.231C399.157 543.485 383.982 525.701 378.67 520.267C365.494 506.632 352.014 493.245 338.972 479.485L316.571 456.134C310.898 450.15 305.47 443.989 299.497 438.288C299.313 450.275 301.149 462.127 298.822 474.042L295.013 469.702L295.013 426.78Z"/>
	<path fill="#FEFEFE" transform="scale(0.479492 0.479492)" d="M511.57 771.348C515.093 778.976 517.152 787.767 518.813 795.992C527.505 795.34 536.324 795.839 545.053 795.449C537.962 800.306 530.396 804.622 523.068 809.121C525.291 817.635 528.836 826.172 531.658 834.527C525.41 828.191 518.554 822.326 511.989 816.317C505.08 821.916 498.516 827.973 491.871 833.881C494.542 825.71 497.734 817.644 500.679 809.563C493.321 804.66 485.66 800.141 478.131 795.504Q491.387 795.639 504.639 796.025C507.135 787.856 508.905 779.47 511.57 771.348Z"/>
	<path fill="#F8B143" transform="scale(0.479492 0.479492)" d="M806.232 511.365C812.291 517.199 818.146 523.237 824.24 529.041C822.219 545.987 816.021 562.573 811.786 579.061C805.013 576.438 797.916 574.781 790.9 572.952C793.407 563.435 796.725 554.132 799.194 544.589C802.037 533.603 803.946 522.467 806.232 511.365Z"/>
	<path fill="#D92F3D" transform="scale(0.479492 0.479492)" d="M184.689 716.526L186.139 716.595C188.012 718.995 187.098 725.075 186.991 728.12C181.187 729.721 175.98 731.692 170.577 734.367C176.068 733.701 181.389 732.456 186.771 731.21C186.652 736.453 186.712 741.714 186.694 746.959C193.34 747.928 199.963 749.215 206.58 750.373C195.321 754.278 180.285 757.335 168.376 760.565C160.386 762.642 152.478 765.647 144.542 768.019C150.533 756.11 157.792 744.38 165.368 733.401C161.617 731.088 158.378 728.484 155.223 725.417Q170.089 721.413 184.689 716.526Z"/>
	<path fill="#D92F3D" transform="scale(0.479492 0.479492)" d="M551.678 710.776C561.591 710.272 572.141 709.994 582.033 710.75C582.02 713.603 581.754 716.466 581.569 719.312C573.958 719.042 566.309 719.083 558.693 718.974L558.728 730.03C566.32 730.086 573.919 729.726 581.506 729.454L581.49 738.495C577.084 738.462 562.629 737.486 559.377 739.504C558.804 739.86 558.847 740.402 558.689 741.007L558.735 748.525C566.508 748.592 574.301 748.127 582.077 748.006C581.78 751.226 581.735 754.463 581.641 757.694L544.525 757.68C544.431 748.639 542.983 720.208 545.396 713.016C547.244 710.986 549.062 710.906 551.678 710.776Z"/>
	<path fill="#D92F3D" transform="scale(0.479492 0.479492)" d="M396.012 711.508L439.272 711.31C438.996 713.937 439.028 716.627 438.957 719.268Q424.856 719.111 410.76 719.504C410.677 723.17 410.737 726.849 410.733 730.517L431.792 730.494L431.666 737.984C424.976 737.973 418.277 738.12 411.587 738.207L410.865 738.654C410.213 741.996 410.685 746.084 410.74 749.517L439.501 749.517L439.493 757.988L396.346 757.981C396.509 742.513 396.01 726.988 396.012 711.508Z"/>
	<path fill="#FEFEFE" transform="scale(0.479492 0.479492)" d="M295.025 374C308.748 387.985 321.678 402.828 335.161 417.058C355.463 438.484 376.352 459.397 396.817 480.676Q412.205 496.361 427.818 511.821C433.939 517.94 440.435 523.965 445.812 530.759C445.198 532.314 444.514 533.849 444.135 535.479L441.363 533.449C430.615 524.581 421.032 513.588 411.132 503.747C385.491 478.26 361.044 451.664 336.402 425.219C324.376 412.314 312.487 399.207 300.022 386.726C300.06 397.754 300.638 409.032 299.055 419.965C297.681 418.349 296.274 416.758 295.023 415.043L295.025 374Z"/>
	<path fill="#4FBCD1" transform="scale(0.479492 0.479492)" d="M667.41 546.111C674.746 541.679 683.192 531.335 689.188 524.871C701.917 511.149 714.217 496.603 727.949 483.9C727.963 493.209 727.649 502.658 728.348 511.94Q714.453 525.617 701.779 540.433C699.11 543.556 696.114 546.671 693.895 550.128C685.541 547.674 676.036 547.338 667.41 546.111Z"/>
	<path fill="#D92F3D" transform="scale(0.479492 0.479492)" d="M594.836 711.132C606.079 710.446 618.52 710.187 629.501 712.828L629.498 723.948Q625.877 724.164 622.249 724.168C614.691 724.113 618.388 722.682 615.096 719.341C611.75 718.592 607.92 718.955 604.489 718.999L604.519 730.757C614.603 730.972 621.073 728.908 630.188 734.704C630.434 740.6 631.835 749.826 629.391 755.195C628.723 756.663 627.967 756.965 626.561 757.448C619.781 757.736 596.476 758.978 591.509 756.28C589.311 753.187 589.92 749.67 589.997 746.046C593.323 745.929 597.441 745.255 600.679 745.799C603.299 746.238 604.085 747.273 605.505 749.367C609.011 749.78 612.506 749.779 616.032 749.81L616.023 739.777C609.321 739.2 602.437 739.458 595.696 739.16C594.012 737.98 592.229 736.939 590.474 735.866C590.145 729.429 588.551 721.416 590.551 715.223C591.332 712.804 592.678 712.157 594.836 711.132Z"/>
	<path fill="#4FBCD1" transform="scale(0.479492 0.479492)" d="M300.014 491.693C312.598 503.989 324.459 517.368 336.286 530.404C341.681 536.35 346.844 543.135 352.928 548.354C353.989 549.265 354.734 549.523 356.109 549.709C345.448 550.937 334.732 552.722 324.106 554.286Q311.72 539.517 298.75 525.258C301.453 519.528 299.973 499.245 300.014 491.693Z"/>
	<path fill="#D92F3D" transform="scale(0.479492 0.479492)" d="M237.799 761.675C249.624 759.621 263.202 763.169 274.785 765.505C233.813 772.863 193.566 780.241 153.707 792.529C144.332 794.942 135.303 798.61 126.133 801.673C128.765 796.519 131.524 791.422 134.228 786.305C168.71 777.245 202.344 766.604 237.799 761.675Z"/>
	<path fill="#D92F3D" transform="scale(0.479492 0.479492)" d="M498.76 711.113C510.934 710.293 523.31 710.817 535.509 711.05L535.479 723.683C532.062 723.722 526.183 724.47 523.103 723.102C521.462 722.373 521.237 721.379 520.46 719.887C517.43 717.759 512.084 718.704 508.483 718.859L508.503 750.024L521.349 750.017C521.378 747.788 521.626 745.325 521.367 743.12C521.208 741.765 520.697 740.834 519.632 739.985C518.444 739.899 517.572 739.756 516.466 739.312C515.429 737.771 515.479 736.286 515.372 734.475C515.451 733.557 515.581 732.647 515.703 731.733C517.611 730.258 532.756 731 536.271 731.021C536.091 738.038 537.798 746.33 535.977 753.118C535.597 754.536 534.936 755.337 533.64 756.045C526.478 759.957 502.635 758.201 494.892 755.658C493.438 742.038 494.214 727.962 494.543 714.291C495.862 713.012 497.206 712.089 498.76 711.113Z"/>
	<path fill="#FEFEFE" transform="scale(0.479492 0.479492)" d="M512.575 289.34L517.669 294.473C509.298 304.832 499.813 313.812 490.61 323.392L452.527 363.189C448.03 367.811 443.75 372.654 439.237 377.246C434.698 381.864 430.152 385.763 426.507 391.216C421.161 396.331 416.421 401.826 411.471 407.313C406.343 406.924 401.155 407.017 396.013 406.969L512.575 289.34Z"/>
	<path fill="#D92F3D" transform="scale(0.479492 0.479492)" d="M779.153 759.201C790.887 759.704 803.125 763.288 814.492 766.073Q852.109 775.385 889.153 786.763C892.03 791.464 894.041 796.595 896.135 801.673Q884.805 797.015 873.113 793.359C831.664 781.377 790.212 771.795 747.506 765.549C758.116 763.791 768.452 760.578 779.153 759.201Z"/>
	<path fill="#D92F3D" transform="scale(0.479492 0.479492)" d="M446.313 711.047C454.567 710.855 462.845 710.592 471.1 710.833C475.189 710.952 482.594 710.73 485.594 713.907C487.671 719.913 485.949 729.958 486.037 736.439C486.1 741.046 486.779 745.685 486.445 750.292C486.282 752.538 485.741 754.47 485.027 756.588C475.042 759.529 456.91 757.68 446.031 757.717C445.854 742.173 446.388 726.603 446.313 711.047Z"/>
	<path transform="scale(0.479492 0.479492)" d="M460.486 718.996L471.328 718.992Q471.578 734.397 471.373 749.802C467.763 750.028 464.115 749.984 460.498 750.035L460.486 718.996Z"/>
	<path fill="#4FBCD1" transform="scale(0.479492 0.479492)" d="M636.708 425.748C645.104 418.557 652.384 409.563 660.135 401.653L704.687 355.835C712.616 347.598 720.311 339.252 728.487 331.242C728.928 340.604 728.972 350.237 728.63 359.605C712.65 375.832 696.899 392.39 681.185 408.879C672.999 417.468 653.686 439.124 644.569 444.638C644.215 436.919 641.176 431.746 636.708 425.748Z"/>
	<path fill="#4FBCD1" transform="scale(0.479492 0.479492)" d="M728.126 430.014C729.877 440.316 728.35 451.716 728.523 462.185C720.965 469.77 713.751 477.31 706.658 485.314C700.932 489.744 676.235 517.091 672.548 523.211C672 524.121 671.804 524.978 671.622 526.011C666.463 532.281 661.319 538.891 655.514 544.579C645.885 544.026 636.297 542.881 626.677 542.185C632.026 536.1 637.245 529.877 642.799 523.977C648.21 518.229 653.99 512.832 659.406 507.091L696.967 466.846L715.546 447.159C719.416 443.109 724.151 438.913 727.324 434.339C728.354 432.855 728.103 431.756 728.126 430.014Z"/>
	<defs>
		<linearGradient id="gradient_0" gradientUnits="userSpaceOnUse" x1="286.96704" y1="471.30756" x2="380.39908" y2="512.85638">
			<stop offset="0" stop-color="#269FBA"/>
			<stop offset="1" stop-color="#64CAD6"/>
		</linearGradient>
	</defs>
	<path fill="url(#gradient_0)" transform="scale(0.479492 0.479492)" d="M299.497 438.288C305.47 443.989 310.898 450.15 316.571 456.134L338.972 479.485C352.014 493.245 365.494 506.632 378.67 520.267C372.799 527.237 369.215 536.361 362.393 542.51L361.728 541.971C352.797 534.807 340.532 519.976 332.275 510.99C321.032 498.756 309.081 487.152 298.822 474.042C301.149 462.127 299.313 450.275 299.497 438.288Z"/>
	<defs>
		<linearGradient id="gradient_1" gradientUnits="userSpaceOnUse" x1="285.05585" y1="370.6228" x2="394.44415" y2="415.8772">
			<stop offset="0" stop-color="#2C9DB8"/>
			<stop offset="1" stop-color="#42C1D3"/>
		</linearGradient>
	</defs>
	<path fill="url(#gradient_1)" transform="scale(0.479492 0.479492)" d="M299.109 332.088C315.85 350.73 333.087 368.817 350.172 387.132C358.19 395.727 380.086 421.835 388.685 426.06C387.36 427.445 386.118 429.052 385.076 430.666C380.011 438.51 379.708 446.652 381.626 455.51C370.607 445.088 360.444 433.296 349.995 422.269C332.727 404.044 315.306 385.972 299.013 366.855C299.967 355.463 299.837 343.502 299.109 332.088Z"/>
	<defs>
		<linearGradient id="gradient_2" gradientUnits="userSpaceOnUse" x1="291.47333" y1="399.48431" x2="432.16522" y2="540.80438">
			<stop offset="0" stop-color="#1FA5BE"/>
			<stop offset="1" stop-color="#79D3DC"/>
		</linearGradient>
	</defs>
	<path fill="url(#gradient_2)" transform="scale(0.479492 0.479492)" d="M300.022 386.726C312.487 399.207 324.376 412.314 336.402 425.219C361.044 451.664 385.491 478.26 411.132 503.747C421.032 513.588 430.615 524.581 441.363 533.449C441.179 533.705 441.024 533.984 440.812 534.218C438.069 537.241 429.799 530.703 426.425 529.933C418.559 528.138 411.093 531.183 403.39 532.104L402.906 532.157C377.511 506.944 353.133 481.276 329.178 454.703C318.915 443.319 307.997 432.456 299.055 419.965C300.638 409.032 300.06 397.754 300.022 386.726Z"/>
	<path fill="#F8B143" transform="scale(0.479492 0.479492)" d="M553.417 331.391C574.378 353.333 596.515 374.199 617.768 395.859C617.282 400.137 616.425 403.564 614.484 407.452C565.746 382.6 503.544 379.852 451.118 393.399Q441.498 395.876 432.274 399.565C425.348 402.382 418.81 405.671 411.471 407.313C416.421 401.826 421.161 396.331 426.507 391.216C432.375 389.745 438.34 386.057 444.014 383.767C449.994 381.354 456.66 379.808 462.89 378.111C467.927 376.739 473.312 376.159 478.461 375.222C495.078 372.199 512.571 369.306 527.822 361.807C541.4 355.131 548.634 345.535 553.417 331.391Z"/>
	<path fill="#FCCD3A" transform="scale(0.479492 0.479492)" d="M517.669 294.473Q536.035 312.456 553.417 331.391C548.634 345.535 541.4 355.131 527.822 361.807C512.571 369.306 495.078 372.199 478.461 375.222C473.312 376.159 467.927 376.739 462.89 378.111C456.66 379.808 449.994 381.354 444.014 383.767C438.34 386.057 432.375 389.745 426.507 391.216C430.152 385.763 434.698 381.864 439.237 377.246C443.75 372.654 448.03 367.811 452.527 363.189L490.61 323.392C499.813 313.812 509.298 304.832 517.669 294.473Z"/>
	<path fill="#4FBCD1" transform="scale(0.479492 0.479492)" d="M728.524 385.525L728.573 388.353Q728.411 401.542 728.437 414.731C722.879 420.743 704.084 439.697 702.105 446.434C686.248 463.745 670.411 480.902 654.041 497.74C640.013 512.171 625.578 526.16 611.902 540.932C606.128 540.312 583.528 541.8 580.3 538.867L580.061 537.902C583.342 536.634 605.318 512.156 609.412 507.671C635.102 479.523 662.675 453.217 688.921 425.623C699.161 414.856 717.051 392.66 728.524 385.525Z"/>
	<defs>
		<linearGradient id="gradient_3" gradientUnits="userSpaceOnUse" x1="558.63239" y1="383.42282" x2="471.40747" y2="522.3465">
			<stop offset="0" stop-color="#F9870B"/>
			<stop offset="1" stop-color="#FFC858"/>
		</linearGradient>
	</defs>
	<path fill="url(#gradient_3)" transform="scale(0.479492 0.479492)" d="M392.368 463.99Q391.743 463.13 391.193 462.221Q390.643 461.311 390.174 460.357Q389.704 459.404 389.317 458.413Q388.931 457.423 388.63 456.403Q388.33 455.384 388.118 454.342Q387.906 453.3 387.784 452.244Q387.662 451.188 387.631 450.126Q387.599 449.063 387.659 448.002C388.133 437.764 393.874 429.9 401.361 423.399C430.336 398.24 484.877 390.136 522.152 392.585C528.958 392.286 535.814 393.072 542.567 393.882C571.053 397.301 604.232 406.321 625.731 426.101C631.569 431.472 635.811 438.366 636.195 446.476C636.76 458.417 629.458 470.093 621.555 478.445C611.732 488.826 600.746 497.664 590.234 507.269C590.331 507.107 590.427 506.945 590.527 506.784C600.025 491.373 623.978 467.671 619.885 448.005C617.974 438.822 608.026 431.658 600.529 427.034C564.817 405.009 508.261 398.829 467.688 408.608C448.709 413.183 416.841 425.211 406.498 442.332C403.55 447.21 404.104 452.708 405.555 457.994C408.949 470.369 416.146 482.245 421.339 494.006C411.425 484.19 401.553 474.504 392.368 463.99Z"/>
	<path fill="#FEFEFE" transform="scale(0.479492 0.479492)" d="M392.368 463.99Q391.743 463.13 391.193 462.221Q390.643 461.311 390.174 460.357Q389.704 459.404 389.317 458.413Q388.931 457.423 388.63 456.403Q388.33 455.384 388.118 454.342Q387.906 453.3 387.784 452.244Q387.662 451.188 387.631 450.126Q387.599 449.063 387.659 448.002C388.133 437.764 393.874 429.9 401.361 423.399C430.336 398.24 484.877 390.136 522.152 392.585C519.772 394.694 513.715 394.437 510.448 394.84C516.274 395.276 522.518 394.502 528.222 395.47C517.015 397.018 505.767 397.104 494.563 398.428C462.002 402.277 420.983 412.087 400.245 439.366C396.084 444.84 394.851 450.592 393.864 457.236C393.516 459.573 393.465 461.851 392.368 463.99Z"/>
	<path fill="#F8B143" transform="scale(0.479492 0.479492)" d="M449.501 490.024L571.312 490.018L570.992 539.507L560.638 539.496C521.414 538.349 482.283 539.865 443.105 541.544C451.875 519.973 449.705 512.551 449.501 490.024Z"/>
	<path transform="scale(0.479492 0.479492)" d="M483.221 499.277C484.018 500.053 483.786 499.708 484.289 500.633C486.073 503.918 486.778 504.216 490.165 505.417C489.679 506.166 489.426 506.443 488.621 506.899C488.399 507.025 488.167 507.132 487.94 507.249C491.089 507.497 494.25 507.491 497.407 507.532C495.754 509.109 494.493 510.106 494.112 512.452C493.951 513.445 493.925 514.021 493.303 514.853L491.868 513.851L491.184 514.061C490.806 515.186 491.007 515.713 491.382 516.785C491.966 518.452 492.585 519.679 491.874 521.367L490.817 521.795C489.191 521.516 488.182 520.97 486.79 520.102L486.259 519.529C482.977 519.214 480.054 521.247 477.286 522.773L478.69 516.235C477.058 514.142 476.16 512.091 475.975 509.431C476.445 509.179 476.917 508.93 477.401 508.707L477.888 508.485C476.676 507.425 474.976 506.718 473.545 505.967C475.477 505.821 477.515 506.435 479.415 506.807C480.506 504.245 481.939 501.754 483.221 499.277Z"/>
	<path transform="scale(0.479492 0.479492)" d="M539.918 498.377C540.791 499.564 541.711 500.863 542.815 501.848C544.834 503.65 551.517 506.805 552.094 509.259C551.202 509.266 550.767 509.278 549.915 509.6C550.617 510.378 551.279 511.156 551.911 511.991C551.183 513.702 549.119 514.399 547.667 515.607C546.857 518.837 548.076 521.781 549.105 524.812C547.195 523.815 545.225 522.911 543.287 521.967L538.064 520.126C535.608 521.245 533.024 521.934 530.439 522.691C531.188 521.263 532.587 519.293 532.994 517.74C533.604 515.409 529.475 511.537 528.199 509.654C528.736 509.374 529.263 509.08 529.797 508.794C534.383 506.329 536.905 502.447 539.918 498.377Z"/>
	<path transform="scale(0.479492 0.479492)" d="M510.223 497.346C512.664 500.592 515.962 504.813 519.716 506.505C520.93 507.052 522.126 507.637 523.332 508.203C522.092 509.151 520.241 508.895 518.717 509.358C520.295 510.334 522.343 511.122 523.397 512.684C522.572 513.267 522.904 513.132 522.066 513.405C520.675 513.858 519.863 514.008 518.887 515.204C518.505 516.289 518.509 516.859 518.76 517.949C519.194 519.827 519.448 520.833 518.551 522.61L517.312 522.83C515.338 521.944 513.406 520.921 511.463 519.965C509.362 520.858 506.883 522.275 504.569 521.993C504.24 521.741 503.817 521.578 503.582 521.236C502.79 520.084 502.715 517.955 502.13 516.633C501.181 514.488 499.566 512.58 499.022 510.258C498.917 509.813 498.759 508.608 498.872 508.203C499.185 507.077 503.899 505.663 505.116 504.755C507.445 503.018 508.834 499.84 510.223 497.346Z"/>
	<path fill="#C01133" transform="scale(0.479492 0.479492)" d="M309.039 324.721C323.126 313.087 337.027 301.554 352.58 291.878C409.323 256.573 478.634 243.943 544.641 250.266C598.752 255.449 652.246 275.013 695.321 308.46C701.773 313.47 709.197 318.875 714.754 324.856Q709.779 330.216 704.709 335.487C698.522 327.495 685.656 319.335 677.143 313.599Q674.005 311.469 670.814 309.421Q667.622 307.373 664.379 305.407Q661.135 303.442 657.843 301.561Q654.55 299.68 651.209 297.884Q647.869 296.088 644.484 294.379Q641.099 292.67 637.67 291.049Q634.242 289.427 630.773 287.895Q627.304 286.362 623.797 284.92Q620.29 283.477 616.747 282.125Q613.203 280.773 609.627 279.513Q606.05 278.253 602.442 277.086Q598.833 275.918 595.197 274.844Q591.56 273.77 587.896 272.79Q584.233 271.809 580.545 270.924Q576.858 270.039 573.149 269.248Q569.439 268.458 565.711 267.764Q561.983 267.069 558.238 266.471Q554.493 265.873 550.734 265.372Q546.975 264.87 543.205 264.466Q539.434 264.061 535.654 263.754Q531.874 263.447 528.088 263.237Q524.301 263.027 520.511 262.915Q516.72 262.803 512.928 262.789Q509.135 262.774 505.344 262.857Q501.552 262.941 497.764 263.121Q493.976 263.302 490.194 263.581Q486.412 263.859 482.639 264.235Q478.865 264.61 475.102 265.083Q471.34 265.556 467.59 266.125Q463.841 266.695 460.108 267.361Q456.374 268.027 452.659 268.789Q448.944 269.551 445.25 270.408Q426.316 274.777 408.087 281.507C403.141 283.367 390.1 289.76 385.927 290.447C385.697 290.485 385.466 290.514 385.236 290.547C375.281 304.885 363.384 317.992 352.119 331.312C346.581 337.861 339.7 345.078 335.552 352.609C329.49 347.275 324.167 340.502 318.592 334.611C315.505 331.205 312.299 327.958 309.039 324.721Z"/>
	<path fill="#D92F3D" transform="scale(0.479492 0.479492)" d="M318.592 334.611C321.459 330.535 326.615 326.921 330.547 323.881C347.561 310.726 365.535 299.285 385.236 290.547C375.281 304.885 363.384 317.992 352.119 331.312C346.581 337.861 339.7 345.078 335.552 352.609C329.49 347.275 324.167 340.502 318.592 334.611Z"/>
	<path fill="#D92F3D" transform="scale(0.479492 0.479492)" d="M565.044 189.252C586.723 193.242 607.985 197.806 628.992 204.611Q632.218 205.626 635.423 206.707Q638.627 207.789 641.808 208.937Q644.99 210.084 648.147 211.297Q651.304 212.511 654.435 213.789Q657.566 215.067 660.67 216.41Q663.774 217.753 666.849 219.16Q669.925 220.566 672.971 222.036Q676.016 223.507 679.031 225.039Q682.046 226.572 685.028 228.167Q688.011 229.762 690.959 231.418Q693.908 233.075 696.822 234.792Q699.735 236.509 702.613 238.286Q705.491 240.062 708.331 241.899Q711.171 243.735 713.973 245.629Q716.774 247.524 719.536 249.476Q722.298 251.428 725.019 253.436Q727.74 255.445 730.418 257.51Q733.097 259.575 735.732 261.694Q738.368 263.814 740.958 265.988Q743.549 268.161 746.095 270.388Q748.64 272.615 751.139 274.894Q753.638 277.174 756.089 279.504Q758.54 281.834 760.942 284.215Q763.344 286.595 765.697 289.025Q768.049 291.455 770.351 293.933Q772.652 296.411 774.902 298.936Q777.152 301.461 779.35 304.032Q781.547 306.603 783.69 309.219Q785.834 311.835 787.923 314.495Q790.011 317.155 792.045 319.857Q794.078 322.56 796.055 325.304Q798.032 328.048 799.952 330.832C805.377 338.695 810.313 346.706 815.025 355.012Q829.758 355.36 844.494 355.516L844.502 453.69L873.071 485.23C881.09 494.148 888.799 503.219 897.484 511.518C874.09 535.639 852.062 561.043 828.697 585.171C823.256 583.033 817.51 580.27 811.786 579.061C816.021 562.573 822.219 545.987 824.24 529.041C829.07 533.467 833.677 538.197 838.367 542.773C848.496 533.069 859.556 522.923 867.905 511.614C858.573 500.648 848.358 490.463 838.045 480.43Q833.572 484.731 828.998 488.924L828.833 375.016L799.275 375.001C794.918 365.548 790.31 356.525 784.796 347.685C749.412 290.955 693.348 248.76 630.656 226.403C612.435 219.905 593.343 215.515 574.514 211.152C571.146 203.949 567.77 196.728 565.044 189.252Z"/>
	<path fill="#D92F3D" transform="scale(0.479492 0.479492)" d="M210.936 355.032Q215.187 346.9 219.943 339.052C259.804 274.683 324.072 226.887 396.102 204.269Q413.626 198.806 431.586 195.016C440.766 193.147 450.095 191.796 459.209 189.648C455.31 197.145 451.445 204.642 448.026 212.374C433.651 215.108 419.353 217.988 405.356 222.317C341.247 242.147 283.198 282.722 245.377 338.424C237.639 349.82 231.136 361.645 225.128 374.027C215.014 373.679 204.84 373.284 194.72 373.458Q193.64 432.07 196.78 490.607C203.795 497.392 210.922 504.122 217.538 511.302L199.301 529.454C200.802 545.86 204.504 563.558 210.907 578.765C205.701 579.92 200.568 581.501 195.436 582.949C186.912 572.68 177.118 563.654 167.664 554.264L124.944 511.682C143.2 493.536 160.922 474.753 178.842 456.269Q178.328 405.801 178.484 355.33Q194.708 354.93 210.936 355.032Z"/>
	<path transform="scale(0.479492 0.479492)" d="M183.677 477.456C188.155 481.728 192.193 486.45 196.78 490.607C203.795 497.392 210.922 504.122 217.538 511.302L199.301 529.454Q191.667 537.387 183.834 545.124C173.508 533.286 161.51 521.646 149.798 511.139C153.904 506.896 158.515 503.065 162.752 498.938Q173.452 488.429 183.677 477.456Z"/>
	<path fill="#BE680D" transform="scale(0.479492 0.479492)" d="M183.8 497.934C188.21 502.338 192.443 506.877 196.655 511.469C192.267 515.603 188.029 519.923 183.736 524.157C179.025 521.606 174.571 515.313 171.065 511.23C175.103 506.647 179.555 502.332 183.8 497.934Z"/>
	<path fill="#D92F3D" transform="scale(0.479492 0.479492)" d="M699.877 719.622C707.506 720.684 715.105 721.642 722.663 723.156Q732.042 725.225 741.382 727.463C692.58 789.136 632.261 838.841 565.781 880.33C548.482 891.126 530.405 902.281 512.001 911.09C497.709 903.871 484.078 895.767 470.305 887.614C410.757 852.366 354.999 811.28 308.968 759.221C299.919 748.986 291.039 738.654 283.129 727.502C289.511 726.16 296.016 725.011 302.333 723.412Q313.348 721.347 324.427 719.655C362.296 763.372 407.409 798.528 456.003 829.536C474.129 841.103 492.512 852.321 511.676 862.094C524.078 857.854 540.07 846.734 551.48 839.539C608.97 803.285 653.416 769.645 699.877 719.622Z"/>
	<path fill="#F8B143" transform="scale(0.479492 0.479492)" d="M699.877 719.622C707.506 720.684 715.105 721.642 722.663 723.156C719.201 731.47 703.012 747.154 696.423 753.722Q688.741 761.416 680.804 768.847Q672.867 776.277 664.683 783.436Q656.5 790.594 648.079 797.472Q639.659 804.35 631.01 810.939Q622.362 817.529 613.497 823.822Q604.631 830.116 595.558 836.107Q586.485 842.098 577.214 847.778Q567.944 853.459 558.487 858.824C543.233 867.409 527.573 875.102 511.838 882.753C444.839 851.868 380.757 808.795 329.743 755.308C320.215 745.318 310.076 734.841 302.333 723.412Q313.348 721.347 324.427 719.655C362.296 763.372 407.409 798.528 456.003 829.536C474.129 841.103 492.512 852.321 511.676 862.094C524.078 857.854 540.07 846.734 551.48 839.539C608.97 803.285 653.416 769.645 699.877 719.622Z"/>
	<path fill="#F25575" transform="scale(0.479492 0.479492)" d="M385.236 290.547C385.466 290.514 385.697 290.485 385.927 290.447C390.1 289.76 403.141 283.367 408.087 281.507Q426.316 274.777 445.25 270.408Q448.944 269.551 452.659 268.789Q456.374 268.027 460.108 267.361Q463.841 266.695 467.59 266.126Q471.34 265.556 475.102 265.083Q478.865 264.61 482.639 264.235Q486.412 263.859 490.194 263.581Q493.976 263.302 497.764 263.121Q501.552 262.941 505.344 262.857Q509.135 262.774 512.928 262.789Q516.72 262.803 520.511 262.915Q524.301 263.027 528.088 263.237Q531.874 263.447 535.654 263.754Q539.434 264.061 543.205 264.466Q546.975 264.87 550.734 265.372Q554.493 265.873 558.238 266.471Q561.983 267.069 565.711 267.764Q569.439 268.458 573.149 269.248Q576.858 270.039 580.545 270.924Q584.233 271.809 587.896 272.79Q591.56 273.77 595.197 274.844Q598.833 275.918 602.442 277.086Q606.05 278.253 609.627 279.513Q613.203 280.773 616.747 282.125Q620.29 283.477 623.797 284.92Q627.304 286.362 630.773 287.895Q634.242 289.427 637.67 291.049Q641.099 292.67 644.484 294.379Q647.869 296.088 651.209 297.884Q654.55 299.68 657.843 301.561Q661.135 303.442 664.379 305.407Q667.622 307.373 670.814 309.421Q674.005 311.469 677.143 313.599C685.656 319.335 698.522 327.495 704.709 335.487C698.106 342.449 690.544 349.305 684.63 356.821C680.723 362.215 670.895 374.142 665.038 377.228C658.278 376.655 651.3 376.94 644.515 376.963L610.869 377.086C606.173 372.918 601.708 368.309 597.444 363.704C593.89 360.755 590.658 357.378 587.363 354.145C584.939 351.965 582.712 349.736 580.54 347.303C567.398 334.028 554.251 320.622 541.392 307.07C532.118 297.295 523.107 286.501 512.6 278.029C502.148 284.961 494.309 295.445 485.602 304.336L459.688 331.145C453.545 337.414 447.15 343.509 441.177 349.93C437.825 353.596 434.512 357.647 430.839 360.97C427.629 364.168 424.357 367.322 421.218 370.59C409.407 382.455 397.307 394.041 385.551 405.978L350.142 368.256C345.527 362.87 340.419 357.778 335.552 352.609C339.7 345.078 346.581 337.861 352.119 331.312C363.384 317.992 375.281 304.885 385.236 290.547Z"/>
	<path fill="#C01133" transform="scale(0.479492 0.479492)" d="M580.54 347.303C587.423 341.021 593.106 333.101 599.096 325.977C609.183 313.98 619.652 301.754 630.543 290.495C626.222 298.362 620.729 305.681 615.642 313.068C606.217 326.754 596.599 340.332 587.363 354.145C584.939 351.965 582.712 349.736 580.54 347.303Z"/>
	<path fill="#C01133" transform="scale(0.479492 0.479492)" d="M430.839 360.97C428.561 356.351 425.553 351.912 422.896 347.495Q413.563 331.956 403.991 316.563C400.127 310.316 395.907 304.098 392.589 297.544C394.8 298.094 433.842 343.55 440.719 349.538L441.177 349.93C437.825 353.596 434.512 357.647 430.839 360.97Z"/>
	<path fill="#C01133" transform="scale(0.479492 0.479492)" d="M350.142 368.256C359.817 356.516 367.938 342.411 376.147 329.572C378.56 325.798 380.717 321.433 383.511 317.956L407.261 351.21C411.7 357.539 415.968 364.913 421.218 370.59C409.407 382.455 397.307 394.041 385.551 405.978L350.142 368.256Z"/>
	<path fill="#C01133" transform="scale(0.479492 0.479492)" d="M597.444 363.704C607.77 350.356 618.546 337.363 628.861 324.008C633.992 317.363 638.744 310.442 643.803 303.744C649.662 311.727 655.999 319.432 661.963 327.352C669.381 337.201 676.614 347.449 684.63 356.821C680.723 362.215 670.895 374.142 665.038 377.228C658.278 376.655 651.3 376.94 644.515 376.963L610.869 377.086C606.173 372.918 601.708 368.309 597.444 363.704Z"/>
	<path fill="#F8B143" transform="scale(0.479492 0.479492)" d="M512.047 121.268C520.209 129.648 527.273 139.4 534.54 148.558C545.052 161.807 556.038 174.917 565.044 189.252C567.77 196.728 571.146 203.949 574.514 211.152C593.343 215.515 612.435 219.905 630.656 226.403C693.348 248.76 749.412 290.955 784.796 347.685C790.31 356.525 794.918 365.548 799.275 375.001L828.833 375.016L828.998 488.924C821.509 496.103 814.105 503.5 806.303 510.336C807.499 499.172 809.072 488.019 809.948 476.826C811.948 451.281 811.799 419.033 806.338 393.991L766.586 393.991Q766.798 376.894 766.53 359.798C756.939 347.553 747.193 335.695 736.916 324.022L736.861 302.669Q732.729 307.193 728.653 311.768C676.8 267.123 635.227 248.117 568.586 233.732C551.167 207.311 532.881 180.707 511.835 157.012C492.212 182.095 472.727 207.456 455.464 234.253C396.838 243.84 339.456 269.757 296.959 311.75C293.122 307.691 289.206 303.541 286.029 298.936C285.784 307.634 285.488 316.319 286.03 325.014C269.104 346.771 254.954 368.064 246.062 394.337Q232.123 394.196 218.184 394.244C216.851 408.417 215.333 422.618 214.829 436.851C213.681 469.276 217.312 501.11 224.527 532.687C227.542 545.882 230.774 559.455 235.847 572.035Q223.261 574.97 210.907 578.765C204.504 563.558 200.802 545.86 199.301 529.454L217.538 511.302C210.922 504.122 203.795 497.392 196.78 490.607Q193.64 432.07 194.72 373.458C204.84 373.284 215.014 373.679 225.128 374.027C231.136 361.645 237.639 349.82 245.377 338.424C283.198 282.722 341.247 242.147 405.356 222.317C419.353 217.988 433.651 215.108 448.026 212.374C451.445 204.642 455.31 197.145 459.209 189.648C475.44 166.085 493.131 142.751 512.047 121.268Z"/>
	<path fill="#D92F3D" transform="scale(0.479492 0.479492)" d="M488.724 547.276C509.482 546.378 530.324 546.805 551.097 547.018C591.508 547.431 632.231 548.818 672.384 553.657C687.016 555.42 701.503 558.186 715.987 560.876Q749.332 566.743 782.024 575.548C798.435 580.115 815.219 584.352 830.484 592.042L830.812 741.894Q807.609 735.419 784.171 729.852Q760.734 724.285 737.097 719.635Q713.461 714.985 689.661 711.259Q665.862 707.533 641.935 704.736C623.619 702.753 605.048 701.825 586.655 700.738C568.619 699.673 550.444 698.452 532.375 698.448Q488.745 697.87 445.213 700.836Q421.095 702.076 397.051 704.33Q373.007 706.585 349.079 709.851Q325.152 713.116 301.383 717.387Q277.614 721.658 254.046 726.927Q223.247 733.556 193.033 742.478Q192.526 712.727 192.896 682.975L193.044 589.468C246.976 574.405 301.25 561.849 356.91 555.119C372.016 553.293 387.187 552.357 402.363 551.304Q445.494 548.236 488.724 547.276Z"/>
	<path transform="scale(0.479492 0.479492)" d="M513.034 554.733Q526.164 554.438 539.297 554.504Q552.431 554.569 565.557 554.995Q578.684 555.421 591.794 556.206Q604.903 556.992 617.987 558.136Q631.07 559.281 644.117 560.784Q657.165 562.287 670.166 564.148Q683.167 566.008 696.112 568.224Q709.057 570.441 721.936 573.011Q748.248 578.437 774.265 585.134C784.499 587.673 806.814 591.659 814.723 597.004C817.39 598.806 818.202 600.754 818.719 603.87C819.485 608.492 819.031 613.599 818.964 618.279Q818.805 628.668 818.833 639.057L818.985 689.725C819.005 698.787 819.292 707.934 818.892 716.984C818.777 719.586 818.738 724.399 817.23 726.541C811.289 726.773 797.98 721.837 791.449 720.177Q776.393 716.424 761.219 713.178Q726.755 705.841 691.936 700.43C645.192 692.954 597.488 689.396 550.201 687.786C536.201 687.31 522.17 687.323 508.162 687.023Q467.852 687.132 427.683 690.5Q399.346 692.624 371.142 696.09Q342.938 699.555 314.93 704.356Q286.922 709.156 259.173 715.28Q231.425 721.404 203.998 728.838Q204.495 662.663 204.027 596.487C262.824 581.478 322.798 568.378 383.166 561.648C426.304 556.839 469.664 555.533 513.034 554.733Z"/>
	<path fill="#FEFEFE" transform="scale(0.479492 0.479492)" d="M512.468 576.499C518.587 576.954 524.84 576.811 530.985 577.063C531.733 601.675 531.213 626.366 531.503 650.992Q546.251 651.163 560.996 651.544C561.036 655.15 561.866 665.969 560.367 668.502Q536.183 668.461 512.014 667.614L511.693 610.899C511.691 599.396 511.543 587.975 512.468 576.499Z"/>
	<path fill="#FEFEFE" transform="scale(0.479492 0.479492)" d="M689.002 587.76C705.339 589.729 721.466 593.471 737.685 596.221L737.702 613.562C728.172 611.442 718.4 609.992 708.785 608.275Q708.637 618.087 708.791 627.898C717.324 629.667 725.957 631.03 734.508 632.735L734.491 649.134L708.557 644.314L708.502 652.25L708.496 665.238L737.507 670.686L737.479 687.641C721.192 685.433 704.929 682.513 688.698 679.883L689.002 587.76Z"/>
	<path fill="#FEFEFE" transform="scale(0.479492 0.479492)" d="M567.699 577.478C584.279 577.784 600.964 579.399 617.501 580.601L617.492 598.037C607.549 597.11 597.486 596.721 587.519 596.05L587.489 615.624C595.578 616.486 603.844 616.668 611.967 617.117L612.007 633.554C603.839 633.539 595.553 632.706 587.39 632.245L587.061 645.49L587.362 653.198C597.577 653.636 607.806 654.389 618.006 655.1L617.991 672.075C601.174 670.676 584.32 669.826 567.495 668.556L567.699 577.478Z"/>
	<path fill="#FEFEFE" transform="scale(0.479492 0.479492)" d="M746.742 598.235C764.248 601.09 781.407 606.284 798.502 610.938L798.47 627.887C787.803 624.96 777.06 622.261 766.359 619.457C766.212 626.135 766.311 632.836 766.307 639.517C776.747 642.693 787.906 644.684 798.514 647.436L798.477 701.742C780.861 698.717 763.377 693.644 746.007 689.409L746.005 672.19Q762.837 675.358 779.471 679.438L779.508 659.359Q763.208 655.876 747.019 651.91Q746.258 625.076 746.742 598.235Z"/>
	<path fill="#FEFEFE" transform="scale(0.479492 0.479492)" d="M279.341 598.59L281.417 598.537C280.947 601.543 262.525 637.331 260.06 642.449C266.718 658.632 274.707 674.17 281.774 690.165C274.516 691.439 267.22 692.751 260.032 694.372C255.386 685.849 251.987 676.789 248.392 667.793C244.022 677.656 244.524 687.586 245.1 698.107L240.885 699.263L225.361 702.87C225.139 672.344 224.447 641.809 225.508 611.286Q234.812 608.869 244.2 606.802C244.611 617.933 244.436 629.013 244.158 640.142C250.065 627.861 254.3 614.803 260.658 602.75C266.849 601.242 273.118 599.968 279.341 598.59Z"/>
	<path fill="#FEFEFE" transform="scale(0.479492 0.479492)" d="M625.698 581.491C643.543 581.369 661.763 584.615 679.502 586.593L679.481 604.615C667.983 603.703 656.536 602.154 645.027 601.309L645.013 656.898C650.417 657.611 655.878 658.088 661.301 658.667C661.327 652.456 661.442 646.242 660.962 640.044C658.492 639.656 655.995 639.565 653.502 639.419C653.458 634.479 652.602 627.54 653.902 622.897L654.904 622.352C663.51 622.91 672.116 624.116 680.676 625.167C680.79 643.023 681.123 660.789 680.689 678.651C664.022 676.6 647.259 675.12 630.628 672.801C628.915 670.872 627.495 668.739 626.026 666.623Q625.469 624.058 625.698 581.491Z"/>
	<path fill="#FEFEFE" transform="scale(0.479492 0.479492)" d="M338.735 588.683C340.414 588.371 342.331 588.407 344.048 588.283C344.963 599.663 344.516 611.296 344.519 622.714L344.506 679.159C337.987 680.013 331.288 681.032 324.916 682.661C323.62 677.197 321.393 671.694 319.606 666.353C315.476 654.011 311.142 641.693 307.738 629.126C306.794 647.703 307.471 666.588 307.494 685.197L301.429 686.386L288.5 688.806L288.504 596.682C295.524 595.839 302.566 594.407 309.552 593.267C315.133 607.934 321.847 623.6 324.18 639.174C325.617 622.964 325.36 606.912 324.965 590.668Q331.825 589.504 338.735 588.683Z"/>
	<path fill="#FEFEFE" transform="scale(0.479492 0.479492)" d="M396.944 581.721C401.273 581.663 405.657 582.147 409.975 582.456L410.008 664.86C407.804 667.217 405.841 669.659 403.9 672.235C391.157 675.15 376.999 675.274 363.968 676.65Q358.217 677.335 352.5 678.257L352.675 586.704C367.21 584.173 382.225 582.751 396.944 581.721Z"/>
	<path transform="scale(0.479492 0.479492)" d="M386.772 599.711L388.136 599.832C390.523 605.044 389.313 648.362 389.295 657.168C385.033 657.45 380.811 657.975 376.574 658.501C375.447 658.459 374.68 658.459 373.68 657.905C372.592 651.677 372.988 644.898 372.982 638.585C372.968 626.11 373.259 613.626 373.351 601.149L386.772 599.711Z"/>
	<path fill="#FEFEFE" transform="scale(0.479492 0.479492)" d="M488.833 576.741C494.074 576.752 499.323 576.582 504.564 576.483C503.899 589.72 500.927 602.974 498.846 616.044C496.072 633.471 493.718 651.02 490.342 668.344Q477.987 668.532 465.641 669.054Q463.817 656.512 462.502 643.907C461.685 636.245 461.157 628.413 459.406 620.903C456.327 636.793 454.911 653.359 452.821 669.441Q441.678 669.972 430.552 670.775L420.8 610.38Q418.527 595.174 416.578 579.923C423.422 579.215 430.422 579.009 437.299 578.686C439.195 598.595 441.459 618.646 444.603 638.394C446.176 618.075 449.83 598.082 451.606 577.83C458.119 577.547 464.613 577.511 471.132 577.518Q474.455 608.565 477.432 639.648C479.52 629.871 482.519 583.491 485.668 578.382C486.555 576.943 487.32 577.066 488.833 576.741Z"/>
</svg>
